<?xml version="1.0" encoding="UTF-8"?>
<!DOCTYPE svg PUBLIC "-//W3C//DTD SVG 1.1//EN" "http://www.w3.org/Graphics/SVG/1.1/DTD/svg11.dtd">
<!-- Creator: CorelDRAW -->
<svg xmlns="http://www.w3.org/2000/svg" xml:space="preserve" width="130.048mm" height="130.048mm" version="1.1" style="shape-rendering:geometricPrecision; text-rendering:geometricPrecision; image-rendering:optimizeQuality; fill-rule:evenodd; clip-rule:evenodd"
viewBox="0 0 13004.8 13004.8"
 xmlns:xlink="http://www.w3.org/1999/xlink"
 xmlns:xodm="http://www.corel.com/coreldraw/odm/2003">
 <defs>
  <style type="text/css">
   <![CDATA[
    .fil1 {fill:#0F2316;fill-rule:nonzero}
    .fil0 {fill:#18421F;fill-rule:nonzero}
    .fil2 {fill:#CA9C7E;fill-rule:nonzero}
    .fil3 {fill:white;fill-rule:nonzero}
   ]]>
  </style>
 </defs>
 <g id="Capa_x0020_1">
  <metadata id="CorelCorpID_0Corel-Layer"/>
  <path class="fil0" d="M6502.47 0c-3591.13,0 -6502.46,2911.22 -6502.46,6502.42 0,3591.19 2911.33,6502.37 6502.46,6502.37 3591.26,0 6502.32,-2911.18 6502.32,-6502.37 0,-3591.2 -2911.06,-6502.42 -6502.32,-6502.42zm-0.07 12215.87l0 0c-2422.95,0 -4492.03,-1516.42 -5309.76,-3652.15l23.02 0c-256.18,-647.22 -397.05,-1352.64 -397.05,-2091 0,-3139.03 2544.69,-5683.78 5683.79,-5683.78 3139,0 5683.82,2544.75 5683.82,5683.78 0,738.36 -140.86,1443.78 -397.1,2091l22.97 0c-817.71,2135.73 -2886.85,3652.15 -5309.69,3652.15z"/>
  <g id="_1828911149168">
   <path class="fil1" d="M7182.79 1968.58c24.46,-15.4 38.78,-40.26 42.96,-74.58 5.04,-41.5 -1.78,-72.2 -20.4,-92.06 -18.97,-20.29 -53.19,-33.44 -102.57,-39.43l-45.26 -5.51 -26.5 217.84 41.89 5.08c49.4,6.01 86.04,2.25 109.88,-11.34z"/>
   <path class="fil1" d="M3719.51 2945.27l-230.75 -172.52c-4.42,-2.86 -15.41,-11.81 -32.91,-26.8 -20.66,-17.4 -39.4,-33.13 -56.23,-47.2 7.11,18.8 14.94,37.31 23.5,55.51 6.28,18.96 12.66,36.41 19.12,52.38l94.35 271.88 182.92 -133.25z"/>
   <path class="fil1" d="M12186.21 6472.72c0,-3139.03 -2544.82,-5683.78 -5683.82,-5683.78 -3139.1,0 -5683.79,2544.75 -5683.79,5683.78 0,738.36 140.87,1443.78 397.05,2091l10573.46 0c256.24,-647.22 397.1,-1352.64 397.1,-2091zm-2411.72 -3302.53l0 0c41.75,-40.45 89.95,-71.25 144.57,-92.42 55.96,-21.4 112.27,-30.98 168.92,-28.73 59.09,0.96 115.57,13.39 169.44,37.34 52.54,23.15 99.82,56.38 141.82,99.82 42,43.36 73.87,92.01 95.69,145.94 21.8,53.96 32.44,110.66 31.84,170.19 -0.58,59.49 -11.93,115.49 -33.99,168.07 -22.64,52.04 -55.4,98.81 -98.25,140.29 -43.4,42.06 -91.47,73.48 -144.21,94.42 -51.91,20.15 -107.94,29.46 -168.09,27.96 -59.06,-2.01 -115.57,-14.99 -169.41,-38.95 -56.01,-25.6 -103.54,-58.64 -142.64,-98.97 -39.61,-40.93 -71.06,-89.53 -94.3,-145.79 -22.72,-55.72 -33.6,-112.28 -32.67,-169.78 -0.39,-56.67 11,-112.64 34.24,-167.88 22.9,-53.9 55.22,-101.08 97.04,-141.51zm-772 -1017.9l0 0 193.98 118.74 -169.36 276.61 259.11 158.65 169.33 -276.61 193.97 118.74 -435.72 711.71 -193.95 -118.75 177.38 -289.74 -259.12 -158.62 -177.39 289.73 -193.93 -118.76 435.7 -711.7zm-1041.29 -405.54l0 0 225.49 76.12c87.6,29.6 148.35,54.88 182.19,75.94 32.83,21.52 57.91,46.44 75.24,74.74 20.65,33.86 32.72,71.22 36.17,112.08 3.19,41.6 -2.75,84.73 -17.81,129.37 -16.04,47.52 -37.79,86.32 -65.16,116.36 -25.74,31 -57.83,53.07 -96.32,66.15 -27.82,9.84 -58.46,13.36 -91.97,10.47 -30.28,-1.82 -79.8,-14.32 -148.56,-37.54l-36.76 -12.4 -38.86 -13.13 -88.07 260.85 -202.51 -68.37 266.93 -790.64zm-1094.76 -189.25l0 0 236.25 28.71c45.71,5.56 84.19,11.18 115.53,16.91 31.31,5.72 56.88,12.07 76.72,19.08 34.07,12.57 63.66,30.69 88.72,54.45 27.41,26.27 46.7,58.11 57.85,95.43 12.11,35.92 15.53,75.38 10.31,118.39 -7.73,63.78 -29.94,114.08 -66.56,150.97 -35.89,36.99 -84.96,57.98 -147.2,63.07l185.18 361.27 -255.19 -31.03 -150.7 -347.3 -39.41 324.21 -212.2 -25.8 100.7 -828.36zm-1350.59 324.89l0 0c17.18,-57.39 43.94,-107.83 80.28,-151.35 36.8,-46.25 81.12,-83.4 132.97,-111.47 50.37,-27.52 105.59,-44.65 165.58,-51.5 60,-6.8 118.02,-2.39 174.05,13.27 56.06,15.61 107.48,41.84 154.25,78.59 46.78,36.74 84.26,79.93 112.42,129.48 27.43,49.68 44.52,104.18 51.23,163.44 6.8,60.02 2.43,117.34 -13.18,171.85 -15.73,53.42 -42.5,103.52 -80.42,150.28 -37.63,45.56 -82.39,82.4 -134.24,110.42 -54.44,28.75 -109.59,46.27 -165.44,52.61 -56.57,6.45 -114.27,1.69 -173.01,-14.2 -58,-16 -109.48,-41.88 -154.44,-77.71 -45.18,-34.25 -82.56,-77.45 -112.13,-129.54 -28.75,-51.05 -46.38,-105.46 -52.92,-163.23 -6.59,-57.76 -1.56,-114.73 15,-170.94zm-1167.65 119.28l0 0 281.41 349.07c5.17,6.52 8.55,10.7 10.12,12.49 23.89,28.78 43.26,56.11 58.14,82 -3.24,-9.75 -7.01,-26.27 -11.33,-49.57 -0.8,-5.87 -3.78,-27.88 -8.93,-66.04l-47.27 -445.14 208.45 -86.6 438.55 721.44 -196.32 81.54 -183.71 -314.38c-16.25,-28.23 -29.91,-53.21 -40.98,-74.94 -11.65,-21.07 -27.16,-51.48 -46.53,-91.16 8.85,39.12 15.93,83.92 21.26,134.35 0.83,9.96 1.87,18.38 3.07,25.27l45.27 404.63 -140.01 58.18 -254.77 -317.63c-3.54,-5.5 -8.76,-12.17 -15.71,-20 -34.42,-41.24 -60.98,-77.92 -79.68,-110.1 13.2,39.79 22.55,69.65 27.96,89.6 3.02,10.29 7.43,25.33 13.19,45.15 5.76,19.81 10.17,34.88 13.18,45.13l93.17 352.02 -195.31 81.11 -201.13 -820.04 207.91 -86.38zm-913.84 504.68l0 0 724.42 504.74 -182.91 133.19 -122.04 -95.87 -261.21 190.29 52.88 146.21 -182.89 133.22 -258.65 -843.99 230.4 -167.79zm-736.26 601.19l0 0 146.34 132.22 -125.35 138.72 472.82 427.26 -152.49 168.74 -472.83 -427.26 -125.33 138.73 -146.31 -132.24 403.15 -446.17zm-992.77 4336.64l0 0c-153.34,-71.38 -276.59,-112.09 -390.35,22.42 41.51,-161.71 -7.06,-272.33 -147.97,-354.07 160.6,-2.47 263.45,-65.91 297.42,-234.78 66.93,136.28 152.3,230.81 324.22,196.82 -131.43,90.33 -181.73,196.06 -83.32,369.61zm550.39 -2193.96l0 0 -358.04 -66.28c-31.97,-6.13 -59.83,-12.09 -83.54,-17.93 -23.55,-4.96 -56.69,-13.03 -99.4,-24.34 35.41,18.87 73.94,42.77 115.61,71.7 8.08,5.87 15.12,10.59 21.15,14.16l335.92 230.03 -47.41 144.04 -406.89 -14.56c-6.49,-0.92 -14.95,-1.35 -25.42,-1.18 -53.71,-0.88 -98.86,-4.72 -135.43,-11.61 38.77,15.98 67.48,28.46 86.13,37.39 9.75,4.41 24.02,10.89 42.79,19.47 18.76,8.59 33.04,15.08 42.78,19.51l327.4 159.41 -66.15 200.87 -752.32 -383.35 70.43 -213.88 448.16 14.97c8.3,0.3 13.64,0.48 16.04,0.47 37.38,0.71 70.72,3.91 100.06,9.53 -9.49,-3.9 -24.5,-11.83 -44.96,-23.79 -4.95,-3.24 -23.53,-15.33 -55.82,-36.39l-367.94 -255 70.62 -214.35 832.72 139.16 -66.49 201.95zm-486.5 -908.48l0 0 266.62 -436.26 156.63 95.71 -151.02 247.08 123.05 75.21 142.4 -232.97 153.19 93.62 -142.39 232.99 119.65 73.12 151 -247.09 159.53 97.51 -266.64 436.27 -712.02 -435.19zm4926.67 3927.04l0 0c-132.03,0.22 -264,-0.42 -395.93,-0.55 -34.54,-0.08 -32.62,-26.12 -37.86,-49.41 -34.06,-154.07 -47.5,-310.34 -55.85,-467.49 -0.9,-17.93 18.25,-55.95 -20.94,-53.56 -34.67,2.09 -19.05,38.06 -19.52,58.13 -3.54,147.03 -6.95,294.17 -5.13,441.22 0.59,47.94 -14.25,66.61 -60.86,65.83 -32.17,-0.42 -64.54,4.88 -96.8,5.15 -87.22,1.04 -92.45,0 -85.49,-83.6 19.95,-241.78 3.99,-484.36 20.74,-725.94 6.72,-94.86 13.55,-101.46 104.65,-82.03 103.27,22.02 204.97,51.55 309.95,66.95 62.5,9.1 100.01,37.78 107.52,113.29 8.2,83.61 40.82,165.02 56.2,248.54 37.15,-135.13 18.02,-273.52 33.96,-415.19 36.45,24.59 30.9,52.33 34.09,77.33 5.71,46.06 2.17,94.81 39.2,132.6 7.63,7.74 7.88,24.35 8.42,36.95 10.33,198.77 50.08,392.55 98.21,585.01 7.51,30.47 -3.54,46.64 -34.56,46.77zm-817.74 -2688.42l0 0c-9.55,-0.24 -19.82,8.13 -23.81,24.08 19.5,16.75 39.8,11.39 58.26,12.4 92.56,5.06 95.31,-19.12 95.39,103.15 0,54.12 -0.31,108.15 -1.68,162.21 -1.15,40.1 -17.31,59.23 -62.17,48.05 -71.1,-17.58 -139.38,-44.85 -212.47,-56.02 -45.45,-6.97 -69.76,-35.01 -71.37,-85.04 -1.25,-38.55 -12.4,-76.63 -22.46,-133.27 -4.78,64.98 -24.96,107.99 -38.29,152.24 -18.71,62.16 -81.73,47.99 -131.89,45.51 -50.74,-2.47 -31.91,-43.31 -32.37,-69.02 -2.51,-112.97 51.61,-210.92 88.46,-313.09 54.92,-152.01 56.44,-150.91 221.26,-154.56 69.08,-1.52 138.3,-4.27 207.14,-10.2 46.86,-4.06 71.81,7.64 62.47,59.52 -1.58,8.41 -2.37,17.28 -1.7,25.87 8.45,100.91 5.12,192.89 -134.77,188.17zm-444.43 347.69l0 0c19.33,0.16 51.4,-9.37 52.42,20.61 1.02,30.33 -30.92,23.33 -50.76,23.5 -101.21,0.87 -202.68,0.35 -304,0.41 -103.53,0.09 -207.07,0.39 -310.44,-0.25 -19.95,-0.03 -49.7,7.6 -48.33,-25.2 1.24,-28.03 28.82,-19.19 46.63,-19.19 204.85,-0.36 409.59,-0.52 614.48,0.12zm-6.06 382.63l0 0c12.41,-146.33 -9.95,-125.21 131.64,-128.6 101.47,-2.33 193.14,41.96 289.58,63 104.84,22.84 205.76,62.99 309.61,91.48 42.17,11.46 43.89,35.19 32.61,66.86 -11.52,32.61 -26.8,63.79 -28.03,100.04 34.87,-20.18 39.31,-65.48 77.17,-92.38 13.58,72.84 -14.82,134.73 -11.6,202.76 26.96,-57.95 57.43,-114.57 80.35,-174.2 23.36,-60.91 65.31,-88.31 127.56,-90.25 185.94,-6.03 369.18,-38.96 553.94,-56.52 36.56,-3.49 64.38,-19.13 70.65,-55.3 8.8,-50.81 35.46,-70.85 85.26,-64.35 12.79,1.7 27.34,1.24 32.74,-13.61 5.25,-14.28 -5.03,-22.09 -14.85,-31.9 -20.85,-20.89 -38.71,-44.79 -64.29,-75.12 54.71,-7.58 101.57,13.89 152.19,-6.7 -40.12,-41.15 -88.35,-59.88 -130.17,-87.35 -97.95,-64.16 -192.66,-132.69 -242.71,-242.5 -40.9,-89.67 -29.98,-186.74 -19.62,-281.25 4.23,-38.76 34.66,-14.76 50.6,-9.87 134.31,41.31 267.84,84.46 401.43,127.26 74.12,23.67 146.94,51.21 222.3,70.47 49.36,12.61 73.99,37.46 75.71,87.68 4.29,123.28 9.34,246.46 13.77,369.76 3.32,92.9 -3.4,186.54 14.59,278.35 14.38,72.82 -30.9,119.65 -70.68,165.37 -98.48,112.56 -200.77,221.84 -314.49,319.46 -46.21,39.74 -96.49,57.71 -158.73,60.6 -210.33,9.71 -417.68,-27.25 -626.74,-36.78 -59.65,-2.72 -118.69,-20.92 -179.24,-26.03 -55.38,-4.59 -106.1,-3.45 -156.96,23.82 -36.35,19.46 -73.87,12.96 -107.83,-16.68 -147.09,-128.01 -314.22,-227.76 -479.16,-329.5 -82.98,-51.17 -125.5,-104.34 -116.6,-208.02zm1123.99 -809.87l0 0c0.69,48.8 -23.23,65.76 -66.54,67.25 -45.47,1.56 -89.49,8.06 -133.95,32.93 43.99,28.65 90.85,18.65 134.42,21.66 47.31,3.24 65.16,24.65 64.27,69.43 -1.39,58.28 -2.25,116.54 -1.25,174.92 1.25,58.98 -21.07,85.77 -84.49,84.36 -94.6,-1.82 -189.78,-9.23 -284.28,5.01 -46.09,7.01 -41.95,-26.12 -41.95,-53.53 0.55,-164.18 1.35,-328.31 3.3,-492.41 0.92,-69.05 6.03,-137.99 6.38,-207.03 0.2,-41.79 18.46,-56.7 58.83,-57.79 94.96,-2.53 189.9,-6.44 284.79,-12.96 44.45,-3 63.46,11.04 62.31,57.19 -2.49,103.71 -3.41,207.51 -1.84,310.97zm120.53 -499.97l0 0c-1.85,-22.16 -14.39,-56.46 30.54,-55.88 8.79,-0.34 17.54,-0.58 26.56,-0.85 21.57,-0.04 43.44,-0.11 65.32,-0.25 25.43,0.07 50.99,0.14 76.49,0.21 8.8,0.21 17.93,0.44 26.83,0.55 3.47,2.57 7.26,2.9 11.14,1.08 10.71,-1.59 21.32,-4.21 31.97,-4.58 123.1,-4.42 129.59,5.39 105.27,125.57 -11.92,58.8 -13.86,119.62 -21.32,179.57 -8.14,65.57 -23.02,74.04 -83.64,52.73 -15.97,-5.55 -34.09,-4.72 -50.08,-10.02 -125.36,-41.8 -133.47,-43.15 -151.78,89.96 -21.79,157.91 -35.38,318.71 64.34,462.34 14.49,20.73 36.61,51 10.16,76.61 -31.36,30.34 -74.34,15.98 -111.6,14.32 -30.88,-1.35 -39.64,-31.16 -39.33,-58.15 0.89,-77.66 3.78,-155.31 6.14,-233.06 6.53,-213.36 20.21,-426.71 2.99,-640.15zm879.97 304.44l0 0c-0.23,0 -0.45,0 -0.69,0 0,45.27 2.04,90.73 -0.6,135.87 -1.7,26.82 -10.11,51.75 -49.09,39.05 -101.47,-33.21 -203.3,-65.69 -305.78,-96.07 -35.1,-10.39 -50.06,-29.27 -46.94,-65.31 5.08,-60.2 9.68,-120.42 13.56,-180.74 2.17,-33.06 18.78,-44.51 51.07,-42.3 94.74,6.52 189.57,12.09 284.55,16.72 37.34,1.91 54.85,19.05 54.17,56.68 -0.94,45.3 -0.25,90.69 -0.25,136.1zm-573.33 2964.53l0 0c-53.87,-3.48 -108.04,-1.96 -162.1,0.2 -41.05,1.39 -57.67,-12.19 -55.74,-56.3 3.67,-75.39 1,-151.35 1,-226.97 3.01,0 5.81,0 8.69,0 0,-79.96 0,-159.94 0.13,-239.96 0,-2.44 0.13,-4.94 0.21,-7.39 -0.33,-1.04 -0.71,-1.86 -1.13,-2.3 -0.8,-0.64 0.79,-3.62 1.37,-5.54 -0.09,2.68 -0.14,5.24 -0.24,7.84 2.31,6.97 3.09,24.18 8.67,4.32 8.98,-32.33 3.09,-68.53 4.89,-103.19 3.21,-58.77 15.29,-64.71 66.26,-32.87 29.06,18.27 57.91,37.3 85.94,57.34 34.74,25.05 56.51,56.32 56.84,102.74 1.07,147.36 42.09,290.18 51.12,437.04 3.19,54.42 -15.97,68.23 -65.91,65.04zm3167.25 -2029.02l0 0c-32.45,14.85 -67.46,22.39 -101.08,18.09 -65.55,-8.17 -73.06,23.36 -72.64,78.51 2.39,266.19 1.15,532.57 1.15,798.98 0,103.6 -22.57,126.82 -123.94,126.82 -134.25,0 -268.32,2.85 -402.64,-1.55 -56.31,-1.84 -68.16,17.02 -67.01,69.53 3.55,151.46 1.8,303.15 1.7,454.7 -0.32,88.35 -27.58,115.5 -117.54,115.63 -331.28,0.31 -662.44,0.42 -993.82,0.07 -94.19,-0.07 -116.53,-23.65 -116.62,-120.14 0,-485.08 -0.69,-970.17 1.48,-1455 0.07,-53.96 -13.45,-72.13 -68.31,-67.24 -57.9,5 -116.95,4.35 -174.97,0.02 -53.94,-3.99 -73.11,12.37 -68.68,68.37 9.03,116.44 9.18,233.7 19.06,350.04 6.04,70.13 -12.67,117.34 -66.08,169.13 -163.36,157.47 -316.62,325.72 -475.1,488.47 -46.47,47.69 -86.49,103.67 -149.07,133.3 -31.71,14.94 -17.83,40.45 -15.98,61.98 20.07,228.46 41.15,456.91 61.25,685.37 1.79,20.87 16.38,50.18 -23.95,54.05 -31.74,3.02 -53.71,-2.23 -57.12,-41.78 -24.55,-281.36 -50.53,-562.55 -75.8,-843.7 -0.56,-5.86 2.47,-11.94 5.66,-26.52 74.79,64.62 115.37,9.72 161.9,-38.89 174.31,-183.31 349.99,-365.84 527.03,-546.64 23.12,-23.64 26.35,-46.18 24.95,-75.12 -7.54,-153.32 -12.35,-306.97 -21.63,-460.15 -3.22,-52.14 18.08,-61.57 63.92,-60.67 114.69,2.53 229.47,3.3 344.29,-0.45 54.96,-1.76 69.08,17.4 68.99,70.71 -1.8,495.77 -1.06,991.6 -0.92,1487.47 0,82.69 -0.14,82.95 84.01,82.97 303.23,0.13 606.25,-1.36 909.35,1.33 54.99,0.54 72.64,-10.21 72.55,-70.05 -2.07,-876.97 -1.15,-1753.83 -0.94,-2630.64 0,-51.49 0,-102.96 0,-154.4 30.79,366.09 36.48,732.95 49.02,1099.62 12.12,357.01 24.87,713.94 35.69,1070.95 1.02,36.65 11.89,48.32 48.36,47.87 136.43,-1.78 273.04,-2.8 409.23,0.41 46.29,1.02 51.55,-17.81 51.45,-56.67 -1.52,-287.96 0.88,-575.96 -2.3,-863.92 -0.79,-64.44 11.6,-97.3 82.98,-85.2 25.21,4.19 51.74,0.95 77.76,0 96.21,-3.46 155.39,-61 157.7,-152.81 2.34,-91.95 -53.14,-153.53 -147.56,-163.48 -8.67,-0.89 -17.41,-0.87 -25.98,-1.15 -143.83,-4.31 -143.67,-4.31 -143.67,-146.03 0.23,-320.45 -0.58,-640.94 1.39,-961.37 0.1,-42.88 -10.82,-56.03 -53.71,-55.4 -158.11,2.18 -316.08,-1.23 -474.11,2.1 -55.09,1.22 -69.87,-17.33 -68.16,-70.62 3.77,-118.96 -0.15,-238.1 2.25,-357.17 0.78,-43.14 -13.77,-54.54 -56.06,-54.26 -316.14,1.61 -632.27,1.88 -948.51,-0.28 -48.45,-0.39 -61.62,12.69 -61.52,61.35 2.05,498.05 1.34,995.96 1.79,1494.01 0.26,87.51 1.05,87.44 -86.63,87.51 -116.86,0 -233.94,-2.17 -350.69,1.27 -46.69,1.38 -60.37,-15.34 -59.5,-59.06 1.24,-52.06 -1.2,-104.08 -5.36,-155.8 -3.3,-42.39 12.44,-93.34 -51.52,-111.53 -19.38,-5.56 -10.13,-35.03 -9.35,-53.59 5.46,-140.64 9.81,-281.32 19.39,-421.57 3.09,-46.25 -8.98,-60.59 -54.95,-60.71 -136.1,-0.36 -271.56,-26.85 -408.21,-16.98 -37.68,2.64 -46.07,-16.55 -47.99,-51.11 -6.32,-106.81 -7.74,-107.22 -118.84,-109.63 -149.18,-3.31 -298.68,-4.51 -448.01,-9.71 -40.88,-1.47 -56.64,7.19 -57.77,51.84 -3.79,146.94 -5.73,146.78 -154,151.55 -103.96,3.29 -207.85,8.38 -311.69,9.23 -45.37,0.52 -64.88,12.37 -63.5,62.85 2.39,87.44 -1,87.44 -87.21,87.53 -145.02,0.02 -290.12,0.73 -435.14,0.17 -30.09,-0.1 -56.8,0.39 -61.33,39.39 -14.27,120.75 -71.93,225.79 -124.15,332.23 -35.11,71.71 -52.53,144.25 -48.8,224.71 4.23,88.47 0.57,88.55 -91.18,88.55 -114.77,0 -229.59,-3.11 -344.28,1.41 -56.09,2.2 -68.07,-17.07 -67.95,-69.62 1.82,-500.31 0,-1000.36 2.72,-1500.52 0.35,-60.83 -16.53,-74.58 -75.11,-74.04 -307.36,2.99 -614.92,2.59 -922.36,0.2 -52.22,-0.44 -71.62,9.97 -69.55,66.25 4.42,118.9 -0.45,238.22 2.17,357.21 1.04,46.33 -15.61,59.12 -60.2,58.56 -158.11,-2.25 -316.25,1.2 -474.25,-2.16 -48.79,-1.04 -61.57,12.53 -61.23,60.91 2.17,344.35 -0.2,688.59 3.08,1032.78 0.58,59.17 -16.52,76.44 -72.26,70.01 -34.19,-3.8 -69.42,-1.66 -103.86,1.94 -91.2,9.65 -144.32,70.75 -142.6,161.08 1.7,89.26 58.15,148.01 150.01,153.81 36.6,2.19 73.76,3.36 110.34,0.15 46.76,-4.13 57.71,15.28 57.46,59.57 -1.57,294.51 0.82,588.93 -2.02,883.47 -0.49,52.93 15.71,64.25 64.97,62.98 129.85,-3.3 259.8,-2.7 389.64,-0.55 41.84,0.88 54.04,-11.15 55.28,-54.02 18.28,-608.07 38.56,-1216.04 58.59,-1823.98 1.49,-44.93 4.58,-89.64 7.32,-141.36 23.6,25.38 16.64,47.95 16.64,68.54 0.32,545.6 -0.24,1091.21 -0.1,1636.91 0.1,296.54 2.15,593.2 1.45,889.75 -0.11,42.48 6.85,61.41 55.86,61.05 313.97,-2.44 628.05,-3.09 941.89,-0.69 54.94,0.44 68.17,-15.17 67.83,-68.68 -1.83,-498 0.11,-995.97 -2.28,-1494.06 -0.35,-63.65 18.02,-81.7 80.4,-79.21 121.02,4.76 242.45,3.13 363.64,0.46 44.55,-0.97 60.75,11.31 59.48,57.96 -2.73,108.19 0.35,216.55 0,324.81 -0.09,29.31 3.32,53.1 31.15,72.37 185.9,128.07 335.82,298.46 512.09,438.15 22.92,18.26 23.11,39.47 22.1,63.31 -16.64,363.28 -33.85,726.52 -49.26,1089.79 -1.59,36.92 -14.02,49.32 -49.91,48.1 -44.36,-1.47 -32.49,-32.56 -31.57,-55.91 13.98,-341.69 27.81,-683.45 44.8,-1024.91 2.16,-43.64 -9.14,-71.21 -40.6,-99.56 -149.11,-133.89 -289.22,-278.05 -453.59,-394.21 -48.23,-34.08 -70.47,-76.5 -67.15,-137.56 3.99,-79.76 -2.05,-160.11 0.45,-240.11 1.26,-44.19 -11.2,-61.86 -58.36,-59.15 -73.42,4.13 -147.42,4.75 -220.81,0.49 -48.93,-2.86 -61.24,11.63 -60.89,60.77 2.06,417.87 1.14,835.8 1.14,1253.64 0,73.64 0.43,147.29 -0.12,220.8 -0.68,77.82 -25.99,104.39 -105.1,105.22 -136.47,1.29 -272.92,0.58 -409.16,0.67 -199.41,0.07 -398.53,0.27 -597.7,-0.16 -89.03,-0.26 -115.38,-26.79 -115.61,-117.33 -0.33,-151.56 -2.62,-303.18 1.6,-454.62 1.62,-56.11 -16.86,-68.3 -69.29,-66.93 -138.4,3.39 -277.03,1.37 -415.67,1.01 -81.37,-0.2 -109.3,-27.03 -109.43,-108.89 -0.45,-275 -1.47,-549.97 1.13,-825 0.57,-52.37 -10.81,-70.61 -67.22,-70.5 -148.22,0.33 -251.39,-101.14 -251.95,-238.76 -0.59,-138.4 102.15,-242.05 249.31,-241.01 60.98,0.39 70.21,-21.66 69.86,-75.01 -2.03,-322.62 -0.91,-645.32 -0.67,-967.92 0.12,-100.7 20.99,-121.89 121.75,-122.32 138.62,-0.64 277.26,-1.87 415.74,0.96 43.36,0.86 56.23,-11.97 55.07,-54.56 -2.63,-101.69 -1.13,-203.55 -0.76,-305.22 0.2,-89.91 26.29,-117.55 114.3,-117.55 335.52,-0.27 671.14,-0.11 1006.76,0.28 83.22,0.16 107.38,25.04 107.38,109.23 0,485.05 1.36,969.96 -1.61,1455.03 -0.43,64.54 18.5,81.06 79.6,76.42 71,-5.5 142.82,-1.93 214.19,-1.08 26.34,0.31 51.31,-1.9 47.21,-35.88 -12.44,-99.32 37.39,-180.33 76.47,-263.63 45.26,-96.24 88.27,-192.59 102.15,-299.15 8.22,-63.46 45.69,-87.76 107.16,-87.21 138.51,1.11 277.01,-0.28 415.65,1.03 36.5,0.32 58.93,-2.11 58.48,-49.94 -0.45,-70.68 26.9,-94.68 99.97,-98.04 123.36,-5.75 246.59,-11.79 369.96,-12.67 47.29,-0.36 61.31,-17.59 56.53,-60.68 -1.94,-17.09 -0.92,-34.6 0.46,-51.84 4.68,-60.1 36.01,-91.39 96.12,-90.62 203.34,2.65 406.82,6.18 610.32,10.85 67.92,1.5 98.65,34.71 89.17,105.5 -6.18,44.51 9.66,51.51 46.51,53.4 114.42,5.48 228.86,13.59 343.44,19.87 87.12,4.7 114.59,32.48 112.44,118.02 -3.41,132 -6.94,264.04 -10.51,396.02 -0.62,25.43 -1.38,46.96 23.18,68.07 38.5,33.26 25.18,84.61 27.55,128.95 8.31,147.95 7.62,149.47 155.07,147.1 59.46,-0.94 136.32,26.99 174.32,-12.73 34.17,-36.18 9.45,-111.43 9.58,-169.48 0.73,-445.98 0.42,-892.05 0.42,-1338.03 0.14,-101.07 16.66,-118.79 114.46,-118.79 333.55,-0.27 666.99,-0.27 1000.46,-0.04 84.79,0 112.2,26.87 112.75,112.31 1,99.65 2.62,199.29 -0.68,298.86 -1.72,49.44 10.35,68 64.05,66.29 134.3,-4.02 268.61,-1.48 402.92,-1.2 105.2,0.15 126.37,20.99 126.37,124.48 0,322.7 1.3,645.2 -1.55,967.89 -0.62,56.53 13.44,73.25 71.33,72.9 123.94,-0.91 222.87,80.49 245.35,190.85 22.81,111.63 -35.92,222.25 -142.88,270.96zm-2407.43 -293.53l0 0c1.3,-27.87 29.43,-18.63 46.53,-19 66.77,-1.29 133.7,-0.57 200.63,-0.57 66.91,-0.05 133.75,-0.44 200.53,0.24 18.14,0.17 44.65,-6.16 44.65,22.37 0,22.21 -22.77,21.76 -40.1,21.76 -135.9,0.1 -271.88,0.23 -407.8,-0.16 -18.91,0 -45.44,1.22 -44.44,-24.64zm612.07 1730.3l0 0 0 -3343.23 796.75 0 0 3343.23 -796.75 0zm1002.49 -2816.51l0 0 466.42 0 0 2220.8 -347.04 1.46 -119.38 -2222.26zm541.4 1086.86l0 0c1.47,-25.23 23.73,-19.44 39.71,-20.27 19.48,-0.91 38.74,-0.23 58.22,-0.23 21.46,0 43.01,-1.13 64.43,0.47 15.84,1.09 39.88,-1.95 37.89,22.79 -1.65,21.57 -23.75,21.49 -40.83,21.57 -40.95,0.33 -81.9,0.33 -122.81,-0.29 -16.52,-0.27 -38.07,1.36 -36.61,-24.04zm-5250.95 -1613.58l0 0 0 3343.23 -796.86 0 0 -3343.23 796.86 0zm-988.59 492.42l0 0 -119.49 2222.27 -347.04 -1.55 0 -2220.72 466.53 0zm-551.09 1120.37l0 0c-0.22,50.39 -55.51,12.37 -81.51,26.94 -31.45,-9.42 -86.52,14.13 -86.06,-21.87 0.56,-44.88 55.29,-21.94 85.5,-22.66 28.51,-0.63 82.07,-18.29 82.07,17.59zm7466.96 -1202.67l0 0c-76.1,-22.48 -139.05,-75.03 -188.9,-157.65 -30.6,-50.76 -49.67,-101.1 -57.12,-150.99 -7.42,-49.83 -4.43,-105.22 9,-166.16l197.86 0.35c-15.16,49.91 -22.47,93.32 -21.98,130.22 1,38.41 9.7,71.27 26.17,98.55 15.49,25.68 35.29,42.75 59.48,51.2 24.17,8.47 47.01,6.22 68.48,-6.74 23.46,-14.1 37.6,-32.18 42.54,-54.2 3.65,-22.61 -3.02,-63.53 -20.13,-122.75 -23.06,-80.93 -28.35,-144.87 -15.82,-191.84 12.94,-47.7 45.78,-87.42 98.5,-119.22 68.33,-41.23 137.81,-51.87 208.38,-31.9 70.53,19.07 127.88,65.18 171.98,138.31 24.89,41.3 42.09,81.92 51.52,121.86 10.5,41.72 14.73,84.78 12.67,129.2l-176.99 23.28c5.61,-32.63 6.24,-64.01 1.82,-94.14 -4.71,-29.11 -13.77,-54.88 -27.31,-77.31 -13.74,-22.74 -30.9,-38.29 -51.52,-46.7 -19.52,-8.16 -38.27,-6.83 -56.14,3.96 -17.26,10.39 -27.76,25.38 -31.49,44.94 -2.67,19.82 2.17,51.02 14.58,93.7 0.45,1.5 0.88,2.78 1.31,3.87 0.45,1.07 0.91,2.78 1.44,5.12 26.73,92.18 34.57,158.89 23.52,200.16 -6.59,26.62 -19.71,52.28 -39.41,77.01 -18.98,22.98 -43.77,43.71 -74.36,62.15 -75.49,45.53 -151.5,57.43 -228.08,35.72zm128.12 409.64l0 0 770.63 -320.13 88.15 212.13 -770.64 320.14 -88.14 -212.14zm367.87 1019.92l0 0c-64.94,-45.65 -107.74,-115.58 -128.53,-209.85 -12.75,-57.89 -14.65,-111.67 -5.72,-161.27 8.89,-49.63 29.48,-101.15 61.68,-154.55l187.36 63.64c-30.35,42.42 -51.19,81.2 -62.51,116.36 -11.38,36.71 -13.65,70.6 -6.77,101.74 6.44,29.26 19.75,51.77 39.96,67.56 20.21,15.74 42.52,20.92 67.05,15.53 26.71,-5.87 45.91,-18.45 57.63,-37.75 10.71,-20.22 17.49,-61.16 20.25,-122.74 4.04,-84.03 19.54,-146.31 46.42,-186.81 27.55,-41.01 71.37,-68.15 131.48,-81.38 77.95,-17.19 147.15,-5.01 207.64,36.47 60.71,40.67 100.25,102.74 118.62,186.14 10.36,47.07 13.64,91.08 9.78,131.96 -3.4,42.87 -13.15,85.02 -29.35,126.43l-175.13 -34.61c15.77,-29.13 26.39,-58.68 31.86,-88.64 4.88,-29.06 4.49,-56.35 -1.13,-81.92 -5.72,-25.97 -16.98,-46.22 -33.81,-60.77 -15.9,-14 -34.09,-18.73 -54.49,-14.23 -19.68,4.33 -34.42,15.15 -44.18,32.47 -8.9,17.94 -14.31,49.08 -16.21,93.45 -0.07,1.57 -0.06,2.95 0.01,4.11 0.05,1.14 -0.01,2.92 -0.28,5.3 -4.19,95.86 -18.1,161.58 -41.81,197.13 -14.77,23.11 -35.44,43.21 -62.02,60.37 -25.32,15.67 -55.44,27.38 -90.31,35.05 -86.13,18.95 -161.93,5.89 -227.49,-39.19zm314.7 1280.04l0 0c41.65,-161.69 -7.1,-272.34 -147.94,-354.09 160.75,-2.44 263.45,-65.89 297.4,-234.75 67.07,136.29 152.32,230.84 324.34,196.81 -131.45,90.35 -181.83,196.05 -83.47,369.65 -153.17,-71.42 -276.57,-112.12 -390.33,22.38z"/>
   <path class="fil1" d="M8200.63 2199.39c25.14,-6.75 43.48,-27.24 55.03,-61.42 11.07,-32.78 9,-59.64 -6.18,-80.62 -15.19,-20.97 -48.51,-40.14 -99.98,-57.52l-43.24 -14.58 -62.7 185.77 41.05 13.87c51.11,17.25 89.8,22.09 116.02,14.5z"/>
   <path class="fil1" d="M10068.19 3725.21c31.19,-1.13 60.59,-8.18 88.23,-21.17 27.63,-12.99 54.29,-31.9 79.95,-56.75 49.93,-48.34 77.42,-103.81 82.48,-166.35 4.26,-62.83 -15.16,-116.46 -58.24,-160.97 -44.14,-45.6 -97.26,-66.88 -159.4,-63.86 -62.15,3.01 -118.32,28.85 -168.54,77.46 -52.17,50.51 -80.35,105.8 -84.54,165.93 -4.21,61.72 15.86,115.56 60.27,161.4 43.62,45.08 96.87,66.49 159.79,64.31z"/>
   <path class="fil1" d="M5806.7 2195.91c46.34,41 101.21,57.91 164.67,50.71 62.3,-7.05 111.77,-36.17 148.39,-87.39 18.16,-25.38 30.54,-52.98 37.1,-82.79 6.56,-29.8 7.83,-62.48 3.8,-97.95 -7.83,-69.09 -35.01,-124.73 -81.48,-166.89 -47.16,-41.68 -101.54,-59.02 -163.07,-52.05 -63.05,7.16 -112.34,36.28 -147.86,87.34 -35.49,51.04 -49.32,111.35 -41.43,180.8 8.18,72.11 34.81,128.2 79.88,168.22z"/>
   <g>
    <g>
     <path class="fil2" d="M1215.65 8563.72l-23.02 0c817.73,2135.73 2886.81,3652.15 5309.76,3652.15 2422.84,0 4491.98,-1516.42 5309.69,-3652.15l-22.97 0 -10573.46 0zm3666.36 1464.73l0 0c0,82.05 -8.08,156.36 -24.22,222.87 -12.94,62.67 -35.23,122.09 -66.88,178.31 -72.35,122.09 -165.69,214.78 -280.03,278.08 -113.05,64.61 -242.9,96.91 -389.54,96.91 -104.66,0 -204.45,-17.76 -299.43,-53.29 -88.51,-34.87 -169.89,-87.84 -244.18,-158.91 -69.77,-71.05 -123.39,-150.54 -160.85,-238.38 -35.54,-88.51 -53.31,-186.38 -53.31,-293.62 0,-109.16 18.42,-207.03 55.24,-293.6 34.88,-87.21 87.85,-166.68 158.92,-238.38 67.17,-67.17 148.57,-120.16 244.18,-158.93 92.37,-35.51 192.18,-53.29 299.43,-53.29 144.71,0 273.9,31.64 387.6,94.96 114.98,65.26 207.36,158.59 277.14,280.05l-454.46 168.61c-23.93,-40.7 -52.99,-69.77 -87.21,-87.21 -32.32,-20.02 -70.42,-30.04 -114.36,-30.04 -75.57,0 -135.99,28.45 -181.19,85.28 -44.58,56.83 -66.85,134.37 -66.85,232.55 0,102.09 22.27,179.6 66.85,232.55 45.86,55.59 110.13,83.36 192.83,83.36 47.8,0 88.18,-10.02 121.13,-30.05 30.35,-23.26 48.1,-52.34 53.29,-87.21l-221.9 0 0 -333.32 783.91 0c1.28,19.35 2.1,32.92 2.44,40.68 0.31,7.75 0.78,15.84 1.45,24.23l0 37.79zm1724.03 111.44l0 0 0 626.95 -513.57 0 0 -626.95 -474.8 -791.71 581.39 0 119.18 275.22c16.8,41.35 29.4,77.21 37.8,107.56 1.28,2.59 2.08,4.54 2.41,5.81 0.32,1.32 0.81,2.6 1.47,3.89 5.16,-19.4 17.12,-52.32 35.83,-98.85 2.59,-5.15 4.39,-9.22 5.34,-12.12 0.99,-2.89 1.79,-4.97 2.42,-6.29l117.24 -275.22 577.55 0 -492.26 791.71zm2610.72 626.95l0 0 -62.02 -562.03c-1.97,-21.95 -3.89,-43.9 -5.83,-65.89 -1.94,-21.97 -3.87,-43.61 -5.79,-64.94 -5.21,-54.26 -8.43,-97.21 -9.72,-128.88 -7.11,42.67 -15.19,85.61 -24.2,128.88 -7.79,35.57 -21.02,84.65 -39.73,147.31l-162.79 545.55 -303.31 0 -162.81 -545.55c-16.79,-51.69 -30.03,-100.78 -39.71,-147.31 -12.29,-56.83 -20.35,-99.8 -24.24,-128.88 -5.18,62.03 -8.4,105.64 -9.68,130.83 -2.58,27.78 -6.47,70.72 -11.61,128.88l-62.02 562.03 -500.02 0 242.25 -1418.66 526.17 0 100.76 350.79c1.3,6.48 6.14,22.94 14.54,49.43 43.27,155.05 69.43,276.83 78.51,365.35l8.7 0c7.76,-60.74 19.4,-124.7 34.88,-191.91 12.28,-58.76 32.95,-134.99 62.01,-228.66l105.65 -345 525.21 0 224.8 1418.66 -500 0z"/>
    </g>
   </g>
   <path class="fil3" d="M1418.87 5123.46l367.94 255c32.29,21.06 50.87,33.15 55.82,36.39 20.46,11.96 35.47,19.89 44.96,23.79 -29.34,-5.62 -62.68,-8.82 -100.06,-9.53 -2.4,0.01 -7.74,-0.17 -16.04,-0.47l-448.16 -14.97 -70.43 213.88 752.32 383.35 66.15 -200.87 -327.4 -159.41c-9.74,-4.43 -24.02,-10.92 -42.78,-19.51 -18.77,-8.58 -33.04,-15.06 -42.79,-19.47 -18.65,-8.93 -47.36,-21.41 -86.13,-37.39 36.57,6.89 81.72,10.73 135.43,11.61 10.47,-0.17 18.93,0.26 25.42,1.18l406.89 14.56 47.41 -144.04 -335.92 -230.03c-6.03,-3.57 -13.07,-8.29 -21.15,-14.16 -41.67,-28.93 -80.2,-52.83 -115.61,-71.7 42.71,11.31 75.85,19.38 99.4,24.34 23.71,5.84 51.57,11.8 83.54,17.93l358.04 66.28 66.49 -201.95 -832.72 -139.16 -70.62 214.35z"/>
   <polygon class="fil3" points="2588.35,4243.15 2437.35,4490.24 2317.7,4417.12 2460.09,4184.13 2306.9,4090.51 2164.5,4323.48 2041.45,4248.27 2192.47,4001.19 2035.84,3905.48 1769.22,4341.74 2481.24,4776.93 2747.88,4340.66 "/>
   <polygon class="fil3" points="2566.59,3547.22 3039.42,3974.48 3191.91,3805.74 2719.09,3378.48 2844.44,3239.76 2698.1,3107.54 2294.95,3553.71 2441.26,3685.95 "/>
   <path class="fil3" d="M3645.5 3384.91l-52.88 -146.21 261.21 -190.29 122.04 95.87 182.91 -133.19 -724.42 -504.74 -230.4 167.79 258.65 843.99 182.89 -133.22zm-222.38 -630.65l0 0c-8.56,-18.2 -16.39,-36.71 -23.5,-55.51 16.83,14.07 35.57,29.8 56.23,47.2 17.5,14.99 28.49,23.94 32.91,26.8l230.75 172.52 -182.92 133.25 -94.35 -271.88c-6.46,-15.97 -12.84,-33.42 -19.12,-52.38z"/>
   <path class="fil3" d="M4536.73 2826.98l-93.17 -352.02c-3.01,-10.25 -7.42,-25.32 -13.18,-45.13 -5.76,-19.82 -10.17,-34.86 -13.19,-45.15 -5.41,-19.95 -14.76,-49.81 -27.96,-89.6 18.7,32.18 45.26,68.86 79.68,110.1 6.95,7.83 12.17,14.5 15.71,20l254.77 317.63 140.01 -58.18 -45.27 -404.63c-1.2,-6.89 -2.24,-15.31 -3.07,-25.27 -5.33,-50.43 -12.41,-95.23 -21.26,-134.35 19.37,39.68 34.88,70.09 46.53,91.16 11.07,21.73 24.73,46.71 40.98,74.94l183.71 314.38 196.32 -81.54 -438.55 -721.44 -208.45 86.6 47.27 445.14c5.15,38.16 8.13,60.17 8.93,66.04 4.32,23.3 8.09,39.82 11.33,49.57 -14.88,-25.89 -34.25,-53.22 -58.14,-82 -1.57,-1.79 -4.95,-5.97 -10.12,-12.49l-281.41 -349.07 -207.91 86.38 201.13 820.04 195.31 -81.11z"/>
   <path class="fil3" d="M5553.77 2216.56c29.57,52.09 66.95,95.29 112.13,129.54 44.96,35.83 96.44,61.71 154.44,77.71 58.74,15.89 116.44,20.65 173.01,14.2 55.85,-6.34 111,-23.86 165.44,-52.61 51.85,-28.02 96.61,-64.86 134.24,-110.42 37.92,-46.76 64.69,-96.86 80.42,-150.28 15.61,-54.51 19.98,-111.83 13.18,-171.85 -6.71,-59.26 -23.8,-113.76 -51.23,-163.44 -28.16,-49.55 -65.64,-92.74 -112.42,-129.48 -46.77,-36.75 -98.19,-62.98 -154.25,-78.59 -56.03,-15.66 -114.05,-20.07 -174.05,-13.27 -59.99,6.85 -115.21,23.98 -165.58,51.5 -51.85,28.07 -96.17,65.22 -132.97,111.47 -36.34,43.52 -63.1,93.96 -80.28,151.35 -16.56,56.21 -21.59,113.18 -15,170.94 6.54,57.77 24.17,112.18 52.92,163.23zm214.48 -369.67l0 0c35.52,-51.06 84.81,-80.18 147.86,-87.34 61.53,-6.97 115.91,10.37 163.07,52.05 46.47,42.16 73.65,97.8 81.48,166.89 4.03,35.47 2.76,68.15 -3.8,97.95 -6.56,29.81 -18.94,57.41 -37.1,82.79 -36.62,51.22 -86.09,80.34 -148.39,87.39 -63.46,7.2 -118.33,-9.71 -164.67,-50.71 -45.07,-40.02 -71.7,-96.11 -79.88,-168.22 -7.89,-69.45 5.94,-129.76 41.43,-180.8z"/>
   <path class="fil3" d="M7017.35 2087.45l150.7 347.3 255.19 31.03 -185.18 -361.27c62.24,-5.09 111.31,-26.08 147.2,-63.07 36.62,-36.89 58.83,-87.19 66.56,-150.97 5.22,-43.01 1.8,-82.47 -10.31,-118.39 -11.15,-37.32 -30.44,-69.16 -57.85,-95.43 -25.06,-23.76 -54.65,-41.88 -88.72,-54.45 -19.84,-7.01 -45.41,-13.36 -76.72,-19.08 -31.34,-5.73 -69.82,-11.35 -115.53,-16.91l-236.25 -28.71 -100.7 828.36 212.2 25.8 39.41 -324.21zm40.17 -330.45l0 0 45.26 5.51c49.38,5.99 83.6,19.14 102.57,39.43 18.62,19.86 25.44,50.56 20.4,92.06 -4.18,34.32 -18.5,59.18 -42.96,74.58 -23.84,13.59 -60.48,17.35 -109.88,11.34l-41.89 -5.08 26.5 -217.84z"/>
   <path class="fil3" d="M7984.85 2344.91l38.86 13.13 36.76 12.4c68.76,23.22 118.28,35.72 148.56,37.54 33.51,2.89 64.15,-0.63 91.97,-10.47 38.49,-13.08 70.58,-35.15 96.32,-66.15 27.37,-30.04 49.12,-68.84 65.16,-116.36 15.06,-44.64 21,-87.77 17.81,-129.37 -3.45,-40.86 -15.52,-78.22 -36.17,-112.08 -17.33,-28.3 -42.41,-53.22 -75.24,-74.74 -33.84,-21.06 -94.59,-46.34 -182.19,-75.94l-225.49 -76.12 -266.93 790.64 202.51 68.37 88.07 -260.85zm121.41 -359.66l0 0 43.24 14.58c51.47,17.38 84.79,36.55 99.98,57.52 15.18,20.98 17.25,47.84 6.18,80.62 -11.55,34.18 -29.89,54.67 -55.03,61.42 -26.22,7.59 -64.91,2.75 -116.02,-14.5l-41.05 -13.87 62.7 -185.77z"/>
   <polygon class="fil3" points="8938.11,2693.02 9197.23,2851.64 9019.85,3141.38 9213.8,3260.13 9649.52,2548.42 9455.55,2429.68 9286.22,2706.29 9027.11,2547.64 9196.47,2271.03 9002.49,2152.29 8566.79,2863.99 8760.72,2982.75 "/>
   <path class="fil3" d="M9675.88 3649.36c23.24,56.26 54.69,104.86 94.3,145.79 39.1,40.33 86.63,73.37 142.64,98.97 53.84,23.96 110.35,36.94 169.41,38.95 60.15,1.5 116.18,-7.81 168.09,-27.96 52.74,-20.94 100.81,-52.36 144.21,-94.42 42.85,-41.48 75.61,-88.25 98.25,-140.29 22.06,-52.58 33.41,-108.58 33.99,-168.07 0.6,-59.53 -10.04,-116.23 -31.84,-170.19 -21.82,-53.93 -53.69,-102.58 -95.69,-145.94 -42,-43.44 -89.28,-76.67 -141.82,-99.82 -53.87,-23.95 -110.35,-36.38 -169.44,-37.34 -56.65,-2.25 -112.96,7.33 -168.92,28.73 -54.62,21.17 -102.82,51.97 -144.57,92.42 -41.82,40.43 -74.14,87.61 -97.04,141.51 -23.24,55.24 -34.63,111.21 -34.24,167.88 -0.93,57.5 9.95,114.06 32.67,169.78zm172.25 -149.86l0 0c4.19,-60.13 32.37,-115.42 84.54,-165.93 50.22,-48.61 106.39,-74.45 168.54,-77.46 62.14,-3.02 115.26,18.26 159.4,63.86 43.08,44.51 62.5,98.14 58.24,160.97 -5.06,62.54 -32.55,118.01 -82.48,166.35 -25.66,24.85 -52.32,43.76 -79.95,56.75 -27.64,12.99 -57.04,20.04 -88.23,21.17 -62.92,2.18 -116.17,-19.23 -159.79,-64.31 -44.41,-45.84 -64.48,-99.68 -60.27,-161.4z"/>
   <path class="fil3" d="M10873.37 4646.58c19.7,-24.73 32.82,-50.39 39.41,-77.01 11.05,-41.27 3.21,-107.98 -23.52,-200.16 -0.53,-2.34 -0.99,-4.05 -1.44,-5.12 -0.43,-1.09 -0.86,-2.37 -1.31,-3.87 -12.41,-42.68 -17.25,-73.88 -14.58,-93.7 3.73,-19.56 14.23,-34.55 31.49,-44.94 17.87,-10.79 36.62,-12.12 56.14,-3.96 20.62,8.41 37.78,23.96 51.52,46.7 13.54,22.43 22.6,48.2 27.31,77.31 4.42,30.13 3.79,61.51 -1.82,94.14l176.99 -23.28c2.06,-44.42 -2.17,-87.48 -12.67,-129.2 -9.43,-39.94 -26.63,-80.56 -51.52,-121.86 -44.1,-73.13 -101.45,-119.24 -171.98,-138.31 -70.57,-19.97 -140.05,-9.33 -208.38,31.9 -52.72,31.8 -85.56,71.52 -98.5,119.22 -12.53,46.97 -7.24,110.91 15.82,191.84 17.11,59.22 23.78,100.14 20.13,122.75 -4.94,22.02 -19.08,40.1 -42.54,54.2 -21.47,12.96 -44.31,15.21 -68.48,6.74 -24.19,-8.45 -43.99,-25.52 -59.48,-51.2 -16.47,-27.28 -25.17,-60.14 -26.17,-98.55 -0.49,-36.9 6.82,-80.31 21.98,-130.22l-197.86 -0.35c-13.43,60.94 -16.42,116.33 -9,166.16 7.45,49.89 26.52,100.23 57.12,150.99 49.85,82.62 112.8,135.17 188.9,157.65 76.58,21.71 152.59,9.81 228.08,-35.72 30.59,-18.44 55.38,-39.17 74.36,-62.15z"/>
   <polygon class="fil3" points="11469.68,4833.96 10699.05,5154.09 10787.19,5366.23 11557.83,5046.09 "/>
   <path class="fil3" d="M11384.72 6178.15c26.58,-17.16 47.25,-37.26 62.02,-60.37 23.71,-35.55 37.62,-101.27 41.81,-197.13 0.27,-2.38 0.33,-4.16 0.28,-5.3 -0.07,-1.16 -0.08,-2.54 -0.01,-4.11 1.9,-44.37 7.31,-75.51 16.21,-93.45 9.76,-17.32 24.5,-28.14 44.18,-32.47 20.4,-4.5 38.59,0.23 54.49,14.23 16.83,14.55 28.09,34.8 33.81,60.77 5.62,25.57 6.01,52.86 1.13,81.92 -5.47,29.96 -16.09,59.51 -31.86,88.64l175.13 34.61c16.2,-41.41 25.95,-83.56 29.35,-126.43 3.86,-40.88 0.58,-84.89 -9.78,-131.96 -18.37,-83.4 -57.91,-145.47 -118.62,-186.14 -60.49,-41.48 -129.69,-53.66 -207.64,-36.47 -60.11,13.23 -103.93,40.37 -131.48,81.38 -26.88,40.5 -42.38,102.78 -46.42,186.81 -2.76,61.58 -9.54,102.52 -20.25,122.74 -11.72,19.3 -30.92,31.88 -57.63,37.75 -24.53,5.39 -46.84,0.21 -67.05,-15.53 -20.21,-15.79 -33.52,-38.3 -39.96,-67.56 -6.88,-31.14 -4.61,-65.03 6.77,-101.74 11.32,-35.16 32.16,-73.94 62.51,-116.36l-187.36 -63.64c-32.2,53.4 -52.79,104.92 -61.68,154.55 -8.93,49.6 -7.03,103.38 5.72,161.27 20.79,94.27 63.59,164.2 128.53,209.85 65.56,45.08 141.36,58.14 227.49,39.19 34.87,-7.67 64.99,-19.38 90.31,-35.05z"/>
   <path class="fil1" d="M4878.12 9925.75l-783.91 0 0 333.32 221.9 0c-5.19,34.87 -22.94,63.95 -53.29,87.21 -32.95,20.03 -73.33,30.05 -121.13,30.05 -82.7,0 -146.97,-27.77 -192.83,-83.36 -44.58,-52.95 -66.85,-130.46 -66.85,-232.55 0,-98.18 22.27,-175.72 66.85,-232.55 45.2,-56.83 105.62,-85.28 181.19,-85.28 43.94,0 82.04,10.02 114.36,30.04 34.22,17.44 63.28,46.51 87.21,87.21l454.46 -168.61c-69.78,-121.46 -162.16,-214.79 -277.14,-280.05 -113.7,-63.32 -242.89,-94.96 -387.6,-94.96 -107.25,0 -207.06,17.78 -299.43,53.29 -95.61,38.77 -177.01,91.76 -244.18,158.93 -71.07,71.7 -124.04,151.17 -158.92,238.38 -36.82,86.57 -55.24,184.44 -55.24,293.6 0,107.24 17.77,205.11 53.31,293.62 37.46,87.84 91.08,167.33 160.85,238.38 74.29,71.07 155.67,124.04 244.18,158.91 94.98,35.53 194.77,53.29 299.43,53.29 146.64,0 276.49,-32.3 389.54,-96.91 114.34,-63.3 207.68,-155.99 280.03,-278.08 31.65,-56.22 53.94,-115.64 66.88,-178.31 16.14,-66.51 24.22,-140.82 24.22,-222.87l0 -37.79c-0.67,-8.39 -1.14,-16.48 -1.45,-24.23 -0.34,-7.76 -1.16,-21.33 -2.44,-40.68z"/>
   <path class="fil1" d="M6403.51 9623.4c-0.63,1.32 -1.43,3.4 -2.42,6.29 -0.95,2.9 -2.75,6.97 -5.34,12.12 -18.71,46.53 -30.67,79.45 -35.83,98.85 -0.66,-1.29 -1.15,-2.57 -1.47,-3.89 -0.33,-1.27 -1.13,-3.22 -2.41,-5.81 -8.4,-30.35 -21,-66.21 -37.8,-107.56l-119.18 -275.22 -581.39 0 474.8 791.71 0 626.95 513.57 0 0 -626.95 492.26 -791.71 -577.55 0 -117.24 275.22z"/>
   <path class="fil1" d="M8966.75 9348.18l-105.65 345c-29.06,93.67 -49.73,169.9 -62.01,228.66 -15.48,67.21 -27.12,131.17 -34.88,191.91l-8.7 0c-9.08,-88.52 -35.24,-210.3 -78.51,-365.35 -8.4,-26.49 -13.24,-42.95 -14.54,-49.43l-100.76 -350.79 -526.17 0 -242.25 1418.66 500.02 0 62.02 -562.03c5.14,-58.16 9.03,-101.1 11.61,-128.88 1.28,-25.19 4.5,-68.8 9.68,-130.83 3.89,29.08 11.95,72.05 24.24,128.88 9.68,46.53 22.92,95.62 39.71,147.31l162.81 545.55 303.31 0 162.79 -545.55c18.71,-62.66 31.94,-111.74 39.73,-147.31 9.01,-43.27 17.09,-86.21 24.2,-128.88 1.29,31.67 4.51,74.62 9.72,128.88 1.92,21.33 3.85,42.97 5.79,64.94 1.94,21.99 3.86,43.94 5.83,65.89l62.02 562.03 500 0 -224.8 -1418.66 -525.21 0z"/>
   <path class="fil3" d="M10043.6 5778.98c-57.89,0.35 -71.95,-16.37 -71.33,-72.9 2.85,-322.69 1.55,-645.19 1.55,-967.89 0,-103.49 -21.17,-124.33 -126.37,-124.48 -134.31,-0.28 -268.62,-2.82 -402.92,1.2 -53.7,1.71 -65.77,-16.85 -64.05,-66.29 3.3,-99.57 1.68,-199.21 0.68,-298.86 -0.55,-85.44 -27.96,-112.31 -112.75,-112.31 -333.47,-0.23 -666.91,-0.23 -1000.46,0.04 -97.8,0 -114.32,17.72 -114.46,118.79 0,445.98 0.31,892.05 -0.42,1338.03 -0.13,58.05 24.59,133.3 -9.58,169.48 -38,39.72 -114.86,11.79 -174.32,12.73 -147.45,2.37 -146.76,0.85 -155.07,-147.1 -2.37,-44.34 10.95,-95.69 -27.55,-128.95 -24.56,-21.11 -23.8,-42.64 -23.18,-68.07 3.57,-131.98 7.1,-264.02 10.51,-396.02 2.15,-85.54 -25.32,-113.32 -112.44,-118.02 -114.58,-6.28 -229.02,-14.39 -343.44,-19.87 -36.85,-1.89 -52.69,-8.89 -46.51,-53.4 9.48,-70.79 -21.25,-104 -89.17,-105.5 -203.5,-4.67 -406.98,-8.2 -610.32,-10.85 -60.11,-0.77 -91.44,30.52 -96.12,90.62 -1.38,17.24 -2.4,34.75 -0.46,51.84 4.78,43.09 -9.24,60.32 -56.53,60.68 -123.37,0.88 -246.6,6.92 -369.96,12.67 -73.07,3.36 -100.42,27.36 -99.97,98.04 0.45,47.83 -21.98,50.26 -58.48,49.94 -138.64,-1.31 -277.14,0.08 -415.65,-1.03 -61.47,-0.55 -98.94,23.75 -107.16,87.21 -13.88,106.56 -56.89,202.91 -102.15,299.15 -39.08,83.3 -88.91,164.31 -76.47,263.63 4.1,33.98 -20.87,36.19 -47.21,35.88 -71.37,-0.85 -143.19,-4.42 -214.19,1.08 -61.1,4.64 -80.03,-11.88 -79.6,-76.42 2.97,-485.07 1.61,-969.98 1.61,-1455.03 0,-84.19 -24.16,-109.07 -107.38,-109.23 -335.62,-0.39 -671.24,-0.55 -1006.76,-0.28 -88.01,0 -114.1,27.64 -114.3,117.55 -0.37,101.67 -1.87,203.53 0.76,305.22 1.16,42.59 -11.71,55.42 -55.07,54.56 -138.48,-2.83 -277.12,-1.6 -415.74,-0.96 -100.76,0.43 -121.63,21.62 -121.75,122.32 -0.24,322.6 -1.36,645.3 0.67,967.92 0.35,53.35 -8.88,75.4 -69.86,75.01 -147.16,-1.04 -249.9,102.61 -249.31,241.01 0.56,137.62 103.73,239.09 251.95,238.76 56.41,-0.11 67.79,18.13 67.22,70.5 -2.6,275.03 -1.58,550 -1.13,825 0.13,81.86 28.06,108.69 109.43,108.89 138.64,0.36 277.27,2.38 415.67,-1.01 52.43,-1.37 70.91,10.82 69.29,66.93 -4.22,151.44 -1.93,303.06 -1.6,454.62 0.23,90.54 26.58,117.07 115.61,117.33 199.17,0.43 398.29,0.23 597.7,0.16 136.24,-0.09 272.69,0.62 409.16,-0.67 79.11,-0.83 104.42,-27.4 105.1,-105.22 0.55,-73.51 0.12,-147.16 0.12,-220.8 0,-417.84 0.92,-835.77 -1.14,-1253.64 -0.35,-49.14 11.96,-63.63 60.89,-60.77 73.39,4.26 147.39,3.64 220.81,-0.49 47.16,-2.71 59.62,14.96 58.36,59.15 -2.5,80 3.54,160.35 -0.45,240.11 -3.32,61.06 18.92,103.48 67.15,137.56 164.37,116.16 304.48,260.32 453.59,394.21 31.46,28.35 42.76,55.92 40.6,99.56 -16.99,341.46 -30.82,683.22 -44.8,1024.91 -0.92,23.35 -12.79,54.44 31.57,55.91 35.89,1.22 48.32,-11.18 49.91,-48.1 15.41,-363.27 32.62,-726.51 49.26,-1089.79 1.01,-23.84 0.82,-45.05 -22.1,-63.31 -176.27,-139.69 -326.19,-310.08 -512.09,-438.15 -27.83,-19.27 -31.24,-43.06 -31.15,-72.37 0.35,-108.26 -2.73,-216.62 0,-324.81 1.27,-46.65 -14.93,-58.93 -59.48,-57.96 -121.19,2.67 -242.62,4.3 -363.64,-0.46 -62.38,-2.49 -80.75,15.56 -80.4,79.21 2.39,498.09 0.45,996.06 2.28,1494.06 0.34,53.51 -12.89,69.12 -67.83,68.68 -313.84,-2.4 -627.92,-1.75 -941.89,0.69 -49.01,0.36 -55.97,-18.57 -55.86,-61.05 0.7,-296.55 -1.35,-593.21 -1.45,-889.75 -0.14,-545.7 0.42,-1091.31 0.1,-1636.91 0,-20.59 6.96,-43.16 -16.64,-68.54 -2.74,51.72 -5.83,96.43 -7.32,141.36 -20.03,607.94 -40.31,1215.91 -58.59,1823.98 -1.24,42.87 -13.44,54.9 -55.28,54.02 -129.84,-2.15 -259.79,-2.75 -389.64,0.55 -49.26,1.27 -65.46,-10.05 -64.97,-62.98 2.84,-294.54 0.45,-588.96 2.02,-883.47 0.25,-44.29 -10.7,-63.7 -57.46,-59.57 -36.58,3.21 -73.74,2.04 -110.34,-0.15 -91.86,-5.8 -148.31,-64.55 -150.01,-153.81 -1.72,-90.33 51.4,-151.43 142.6,-161.08 34.44,-3.6 69.67,-5.74 103.86,-1.94 55.74,6.43 72.84,-10.84 72.26,-70.01 -3.28,-344.19 -0.91,-688.43 -3.08,-1032.78 -0.34,-48.38 12.44,-61.95 61.23,-60.91 158,3.36 316.14,-0.09 474.25,2.16 44.59,0.56 61.24,-12.23 60.2,-58.56 -2.62,-118.99 2.25,-238.31 -2.17,-357.21 -2.07,-56.28 17.33,-66.69 69.55,-66.25 307.44,2.39 615,2.79 922.36,-0.2 58.58,-0.54 75.46,13.21 75.11,74.04 -2.72,500.16 -0.9,1000.21 -2.72,1500.52 -0.12,52.55 11.86,71.82 67.95,69.62 114.69,-4.52 229.51,-1.41 344.28,-1.41 91.75,0 95.41,-0.08 91.18,-88.55 -3.73,-80.46 13.69,-153 48.8,-224.71 52.22,-106.44 109.88,-211.48 124.15,-332.23 4.53,-39 31.24,-39.49 61.33,-39.39 145.02,0.56 290.12,-0.15 435.14,-0.17 86.21,-0.09 89.6,-0.09 87.21,-87.53 -1.38,-50.48 18.13,-62.33 63.5,-62.85 103.84,-0.85 207.73,-5.94 311.69,-9.23 148.27,-4.77 150.21,-4.61 154,-151.55 1.13,-44.65 16.89,-53.31 57.77,-51.84 149.33,5.2 298.83,6.4 448.01,9.71 111.1,2.41 112.52,2.82 118.84,109.63 1.92,34.56 10.31,53.75 47.99,51.11 136.65,-9.87 272.11,16.62 408.21,16.98 45.97,0.12 58.04,14.46 54.95,60.71 -9.58,140.25 -13.93,280.93 -19.39,421.57 -0.78,18.56 -10.03,48.03 9.35,53.59 63.96,18.19 48.22,69.14 51.52,111.53 4.16,51.72 6.6,103.74 5.36,155.8 -0.87,43.72 12.81,60.44 59.5,59.06 116.75,-3.44 233.83,-1.27 350.69,-1.27 87.68,-0.07 86.89,0 86.63,-87.51 -0.45,-498.05 0.26,-995.96 -1.79,-1494.01 -0.1,-48.66 13.07,-61.74 61.52,-61.35 316.24,2.16 632.37,1.89 948.51,0.28 42.29,-0.28 56.84,11.12 56.06,54.26 -2.4,119.07 1.52,238.21 -2.25,357.17 -1.71,53.29 13.07,71.84 68.16,70.62 158.03,-3.33 316,0.08 474.11,-2.1 42.89,-0.63 53.81,12.52 53.71,55.4 -1.97,320.43 -1.16,640.92 -1.39,961.37 0,141.72 -0.16,141.72 143.67,146.03 8.57,0.28 17.31,0.26 25.98,1.15 94.42,9.95 149.9,71.53 147.56,163.48 -2.31,91.81 -61.49,149.35 -157.7,152.81 -26.02,0.95 -52.55,4.19 -77.76,0 -71.38,-12.1 -83.77,20.76 -82.98,85.2 3.18,287.96 0.78,575.96 2.3,863.92 0.1,38.86 -5.16,57.69 -51.45,56.67 -136.19,-3.21 -272.8,-2.19 -409.23,-0.41 -36.47,0.45 -47.34,-11.22 -48.36,-47.87 -10.82,-357.01 -23.57,-713.94 -35.69,-1070.95 -12.54,-366.67 -18.23,-733.53 -49.02,-1099.62 0,51.44 0,102.91 0,154.4 -0.21,876.81 -1.13,1753.67 0.94,2630.64 0.09,59.84 -17.56,70.59 -72.55,70.05 -303.1,-2.69 -606.12,-1.2 -909.35,-1.33 -84.15,-0.02 -84.01,-0.28 -84.01,-82.97 -0.14,-495.87 -0.88,-991.7 0.92,-1487.47 0.09,-53.31 -14.03,-72.47 -68.99,-70.71 -114.82,3.75 -229.6,2.98 -344.29,0.45 -45.84,-0.9 -67.14,8.53 -63.92,60.67 9.28,153.18 14.09,306.83 21.63,460.15 1.4,28.94 -1.83,51.48 -24.95,75.12 -177.04,180.8 -352.72,363.33 -527.03,546.64 -46.53,48.61 -87.11,103.51 -161.9,38.89 -3.19,14.58 -6.22,20.66 -5.66,26.52 25.27,281.15 51.25,562.34 75.8,843.7 3.41,39.55 25.38,44.8 57.12,41.78 40.33,-3.87 25.74,-33.18 23.95,-54.05 -20.1,-228.46 -41.18,-456.91 -61.25,-685.37 -1.85,-21.53 -15.73,-47.04 15.98,-61.98 62.58,-29.63 102.6,-85.61 149.07,-133.3 158.48,-162.75 311.74,-331 475.1,-488.47 53.41,-51.79 72.12,-99 66.08,-169.13 -9.88,-116.34 -10.03,-233.6 -19.06,-350.04 -4.43,-56 14.74,-72.36 68.68,-68.37 58.02,4.33 117.07,4.98 174.97,-0.02 54.86,-4.89 68.38,13.28 68.31,67.24 -2.17,484.83 -1.48,969.92 -1.48,1455 0.09,96.49 22.43,120.07 116.62,120.14 331.38,0.35 662.54,0.24 993.82,-0.07 89.96,-0.13 117.22,-27.28 117.54,-115.63 0.1,-151.55 1.85,-303.24 -1.7,-454.7 -1.15,-52.51 10.7,-71.37 67.01,-69.53 134.32,4.4 268.39,1.55 402.64,1.55 101.37,0 123.94,-23.22 123.94,-126.82 0,-266.41 1.24,-532.79 -1.15,-798.98 -0.42,-55.15 7.09,-86.68 72.64,-78.51 33.62,4.3 68.63,-3.24 101.08,-18.09 106.96,-48.71 165.69,-159.33 142.88,-270.96 -22.48,-110.36 -121.41,-191.76 -245.35,-190.85z"/>
   <path class="fil3" d="M5544.26 6518.7c164.94,101.74 332.07,201.49 479.16,329.5 33.96,29.64 71.48,36.14 107.83,16.68 50.86,-27.27 101.58,-28.41 156.96,-23.82 60.55,5.11 119.59,23.31 179.24,26.03 209.06,9.53 416.41,46.49 626.74,36.78 62.24,-2.89 112.52,-20.86 158.73,-60.6 113.72,-97.62 216.01,-206.9 314.49,-319.46 39.78,-45.72 85.06,-92.55 70.68,-165.37 -17.99,-91.81 -11.27,-185.45 -14.59,-278.35 -4.43,-123.3 -9.48,-246.48 -13.77,-369.76 -1.72,-50.22 -26.35,-75.07 -75.71,-87.68 -75.36,-19.26 -148.18,-46.8 -222.3,-70.47 -133.59,-42.8 -267.12,-85.95 -401.43,-127.26 -15.94,-4.89 -46.37,-28.89 -50.6,9.87 -10.36,94.51 -21.28,191.58 19.62,281.25 50.05,109.81 144.76,178.34 242.71,242.5 41.82,27.47 90.05,46.2 130.17,87.35 -50.62,20.59 -97.48,-0.88 -152.19,6.7 25.58,30.33 43.44,54.23 64.29,75.12 9.82,9.81 20.1,17.62 14.85,31.9 -5.4,14.85 -19.95,15.31 -32.74,13.61 -49.8,-6.5 -76.46,13.54 -85.26,64.35 -6.27,36.17 -34.09,51.81 -70.65,55.3 -184.76,17.56 -368,50.49 -553.94,56.52 -62.25,1.94 -104.2,29.34 -127.56,90.25 -22.92,59.63 -53.39,116.25 -80.35,174.2 -3.22,-68.03 25.18,-129.92 11.6,-202.76 -37.86,26.9 -42.3,72.2 -77.17,92.38 1.23,-36.25 16.51,-67.43 28.03,-100.04 11.28,-31.67 9.56,-55.4 -32.61,-66.86 -103.85,-28.49 -204.77,-68.64 -309.61,-91.48 -96.44,-21.04 -188.11,-65.33 -289.58,-63 -141.59,3.39 -119.23,-17.73 -131.64,128.6 -8.9,103.68 33.62,156.85 116.6,208.02z"/>
   <path class="fil3" d="M6632.24 7637c-0.54,-12.6 -0.79,-29.21 -8.42,-36.95 -37.03,-37.79 -33.49,-86.54 -39.2,-132.6 -3.19,-25 2.36,-52.74 -34.09,-77.33 -15.94,141.67 3.19,280.06 -33.96,415.19 -15.38,-83.52 -48,-164.93 -56.2,-248.54 -7.51,-75.51 -45.02,-104.19 -107.52,-113.29 -104.98,-15.4 -206.68,-44.93 -309.95,-66.95 -91.1,-19.43 -97.93,-12.83 -104.65,82.03 -16.75,241.58 -0.79,484.16 -20.74,725.94 -6.96,83.6 -1.73,84.64 85.49,83.6 32.26,-0.27 64.63,-5.57 96.8,-5.15 46.61,0.78 61.45,-17.89 60.86,-65.83 -1.82,-147.05 1.59,-294.19 5.13,-441.22 0.47,-20.07 -15.15,-56.04 19.52,-58.13 39.19,-2.39 20.04,35.63 20.94,53.56 8.35,157.15 21.79,313.42 55.85,467.49 5.24,23.29 3.32,49.33 37.86,49.41 131.93,0.13 263.9,0.77 395.93,0.55 31.02,-0.13 42.07,-16.3 34.56,-46.77 -48.13,-192.46 -87.88,-386.24 -98.21,-585.01z"/>
   <path class="fil3" d="M6491.18 5132.65c-94.89,6.52 -189.83,10.43 -284.79,12.96 -40.37,1.09 -58.63,16 -58.83,57.79 -0.35,69.04 -5.46,137.98 -6.38,207.03 -1.95,164.1 -2.75,328.23 -3.3,492.41 0,27.41 -4.14,60.54 41.95,53.53 94.5,-14.24 189.68,-6.83 284.28,-5.01 63.42,1.41 85.74,-25.38 84.49,-84.36 -1,-58.38 -0.14,-116.64 1.25,-174.92 0.89,-44.78 -16.96,-66.19 -64.27,-69.43 -43.57,-3.01 -90.43,6.99 -134.42,-21.66 44.46,-24.87 88.48,-31.37 133.95,-32.93 43.31,-1.49 67.23,-18.45 66.54,-67.25 -1.57,-103.46 -0.65,-207.26 1.84,-310.97 1.15,-46.15 -17.86,-60.19 -62.31,-57.19z"/>
   <path class="fil3" d="M5952.15 5306.8c-68.84,5.93 -138.06,8.68 -207.14,10.2 -164.82,3.65 -166.34,2.55 -221.26,154.56 -36.85,102.17 -90.97,200.12 -88.46,313.09 0.46,25.71 -18.37,66.55 32.37,69.02 50.16,2.48 113.18,16.65 131.89,-45.51 13.33,-44.25 33.51,-87.26 38.29,-152.24 10.06,56.64 21.21,94.72 22.46,133.27 1.61,50.03 25.92,78.07 71.37,85.04 73.09,11.17 141.37,38.44 212.47,56.02 44.86,11.18 61.02,-7.95 62.17,-48.05 1.37,-54.06 1.68,-108.09 1.68,-162.21 -0.08,-122.27 -2.83,-98.09 -95.39,-103.15 -18.46,-1.01 -38.76,4.35 -58.26,-12.4 3.99,-15.95 14.26,-24.32 23.81,-24.08 139.89,4.72 143.22,-87.26 134.77,-188.17 -0.67,-8.59 0.12,-17.46 1.7,-25.87 9.34,-51.88 -15.61,-63.58 -62.47,-59.52z"/>
   <path class="fil3" d="M6663.05 5874.05c-0.31,26.99 8.45,56.8 39.33,58.15 37.26,1.66 80.24,16.02 111.6,-14.32 26.45,-25.61 4.33,-55.88 -10.16,-76.61 -99.72,-143.63 -86.13,-304.43 -64.34,-462.34 18.31,-133.11 26.42,-131.76 151.78,-89.96 15.99,5.3 34.11,4.47 50.08,10.02 60.62,21.31 75.5,12.84 83.64,-52.73 7.46,-59.95 9.4,-120.77 21.32,-179.57 24.32,-120.18 17.83,-129.99 -105.27,-125.57 -10.65,0.37 -21.26,2.99 -31.97,4.58 -3.88,1.82 -7.67,1.49 -11.14,-1.08 -8.9,-0.11 -18.03,-0.34 -26.83,-0.55 -25.5,-0.07 -51.06,-0.14 -76.49,-0.21 -21.88,0.14 -43.75,0.21 -65.32,0.25 -9.02,0.27 -17.77,0.51 -26.56,0.85 -44.93,-0.58 -32.39,33.72 -30.54,55.88 17.22,213.44 3.54,426.79 -2.99,640.15 -2.36,77.75 -5.25,155.4 -6.14,233.06z"/>
   <path class="fil3" d="M6993.61 7767.73c-0.33,-46.42 -22.1,-77.69 -56.84,-102.74 -28.03,-20.04 -56.88,-39.07 -85.94,-57.34 -50.97,-31.84 -63.05,-25.9 -66.26,32.87 -1.8,34.66 4.09,70.86 -4.89,103.19 -5.58,19.86 -6.36,2.65 -8.67,-4.32 -0.08,2.45 -0.21,4.95 -0.21,7.39 -0.13,80.02 -0.13,160 -0.13,239.96 -2.88,0 -5.68,0 -8.69,0 0,75.62 2.67,151.58 -1,226.97 -1.93,44.11 14.69,57.69 55.74,56.3 54.06,-2.16 108.23,-3.68 162.1,-0.2 49.94,3.19 69.1,-10.62 65.91,-65.04 -9.03,-146.86 -50.05,-289.68 -51.12,-437.04z"/>
   <path class="fil3" d="M6769.88 7737.09c0.42,0.44 0.8,1.26 1.13,2.3 0.1,-2.6 0.15,-5.16 0.24,-7.84 -0.58,1.92 -2.17,4.9 -1.37,5.54z"/>
   <path class="fil3" d="M7498.23 5112.5c-94.98,-4.63 -189.81,-10.2 -284.55,-16.72 -32.29,-2.21 -48.9,9.24 -51.07,42.3 -3.88,60.32 -8.48,120.54 -13.56,180.74 -3.12,36.04 11.84,54.92 46.94,65.31 102.48,30.38 204.31,62.86 305.78,96.07 38.98,12.7 47.39,-12.23 49.09,-39.05 2.64,-45.14 0.6,-90.6 0.6,-135.87 0.24,0 0.46,0 0.69,0 0,-45.41 -0.69,-90.8 0.25,-136.1 0.68,-37.63 -16.83,-54.77 -54.17,-56.68z"/>
   <path class="fil3" d="M4772.61 5947.12c-1.37,32.8 28.38,25.17 48.33,25.2 103.37,0.64 206.91,0.34 310.44,0.25 101.32,-0.06 202.79,0.46 304,-0.41 19.84,-0.17 51.78,6.83 50.76,-23.5 -1.02,-29.98 -33.09,-20.45 -52.42,-20.61 -204.89,-0.64 -409.63,-0.48 -614.48,-0.12 -17.81,0 -45.39,-8.84 -46.63,19.19z"/>
   <path class="fil3" d="M7783.08 5971.9c135.92,0.39 271.9,0.26 407.8,0.16 17.33,0 40.1,0.45 40.1,-21.76 0,-28.53 -26.51,-22.2 -44.65,-22.37 -66.78,-0.68 -133.62,-0.29 -200.53,-0.24 -66.93,0 -133.86,-0.72 -200.63,0.57 -17.1,0.37 -45.23,-8.87 -46.53,19 -1,25.86 25.53,24.64 44.44,24.64z"/>
   <path class="fil3" d="M10054.02 5972.24c17.08,-0.08 39.18,0 40.83,-21.57 1.99,-24.74 -22.05,-21.7 -37.89,-22.79 -21.42,-1.6 -42.97,-0.47 -64.43,-0.47 -19.48,0 -38.74,-0.68 -58.22,0.23 -15.98,0.83 -38.24,-4.96 -39.71,20.27 -1.46,25.4 20.09,23.77 36.61,24.04 40.91,0.62 81.86,0.62 122.81,0.29z"/>
   <path class="fil3" d="M3021.9 5929.53c-30.21,0.72 -84.94,-22.22 -85.5,22.66 -0.46,36 54.61,12.45 86.06,21.87 26,-14.57 81.29,23.45 81.51,-26.94 0,-35.88 -53.56,-18.22 -82.07,-17.59z"/>
   <polygon class="fil3" points="3846.79,7677.56 4643.65,7677.56 4643.65,4334.33 3846.79,4334.33 "/>
   <polygon class="fil3" points="9147.46,4334.33 8350.71,4334.33 8350.71,7677.56 9147.46,7677.56 "/>
   <polygon class="fil3" points="3188.53,7047.47 3535.57,7049.02 3655.06,4826.75 3188.53,4826.75 "/>
   <polygon class="fil3" points="9819.62,7081.85 9819.62,4861.05 9353.2,4861.05 9472.58,7083.31 "/>
   <path class="fil3" d="M11855.42 7062.02c-172.02,34.03 -257.27,-60.52 -324.34,-196.81 -33.95,168.86 -136.65,232.31 -297.4,234.75 140.84,81.75 189.59,192.4 147.94,354.09 113.76,-134.5 237.16,-93.8 390.33,-22.38 -98.36,-173.6 -47.98,-279.3 83.47,-369.65z"/>
   <path class="fil3" d="M1464.43 6877.75c-33.97,168.87 -136.82,232.31 -297.42,234.78 140.91,81.74 189.48,192.36 147.97,354.07 113.76,-134.51 237.01,-93.8 390.35,-22.42 -98.41,-173.55 -48.11,-279.28 83.32,-369.61 -171.92,33.99 -257.29,-60.54 -324.22,-196.82z"/>
  </g>
 </g>
</svg>
