<?xml version="1.0" encoding="UTF-8"?>
<!DOCTYPE svg PUBLIC "-//W3C//DTD SVG 1.1//EN" "http://www.w3.org/Graphics/SVG/1.1/DTD/svg11.dtd">
<!-- Creator: CorelDRAW -->
<svg xmlns="http://www.w3.org/2000/svg" xml:space="preserve" width="282.222mm" height="282.222mm" version="1.1" style="shape-rendering:geometricPrecision; text-rendering:geometricPrecision; image-rendering:optimizeQuality; fill-rule:evenodd; clip-rule:evenodd"
viewBox="0 0 28222.22 28222.22"
 xmlns:xlink="http://www.w3.org/1999/xlink"
 xmlns:xodm="http://www.corel.com/coreldraw/odm/2003">
 <defs>
  <style type="text/css">
   <![CDATA[
    .str0 {stroke:white;stroke-width:360.23;stroke-miterlimit:22.9256}
    .fil2 {fill:none;fill-rule:nonzero}
    .fil0 {fill:black;fill-rule:nonzero}
    .fil3 {fill:white;fill-rule:nonzero}
    .fil1 {fill:white;fill-rule:nonzero}
   ]]>
  </style>
 </defs>
 <g id="Capa_x0020_1">
  <metadata id="CorelCorpID_0Corel-Layer"/>
  <g id="_2503492294432">
   <path class="fil0" d="M27488.07 14111.15c0,7387.86 -5988.89,13376.78 -13376.93,13376.78 -7387.71,0 -13376.99,-5988.92 -13376.99,-13376.78 0,-7387.94 5989.28,-13376.86 13376.99,-13376.86 7388.04,0 13376.93,5988.92 13376.93,13376.86z"/>
   <path class="fil0 str0" d="M25804.14 14211.19c0,6457.86 -5235.31,11692.82 -11693,11692.82 -6457.56,0 -11692.83,-5234.96 -11692.83,-11692.82 0,-6457.58 5235.27,-11692.65 11692.83,-11692.65 6457.69,0 11693,5235.07 11693,11692.65z"/>
   <path class="fil1" d="M25034.47 18512.94c-1682.34,4393.53 -5938.93,7513.2 -10923.33,7513.2 -4984.48,0 -9241.13,-3119.67 -10923.41,-7513.2l21846.74 0z"/>
   <g>
    <g>
     <path class="fil2" d="M21446.89 8478.42c64.21,-2.24 124.71,-16.74 181.55,-43.48 56.81,-26.66 111.59,-65.59 164.37,-116.75 102.8,-99.46 159.4,-213.56 169.84,-342.17 8.71,-129.29 -31.25,-239.64 -119.89,-331.21 -90.81,-93.78 -200.09,-137.6 -327.9,-131.4 -127.82,6.28 -243.44,59.43 -346.72,159.41 -107.31,103.94 -165.3,217.62 -173.94,341.34 -8.75,127.02 32.66,237.71 123.99,332.07 89.71,92.67 199.3,136.77 328.7,132.19z"/>
    </g>
    <g>
     <path class="fil2" d="M17604.91 5339.49c51.68,-13.85 89.47,-55.95 113.21,-126.37 22.74,-67.35 18.54,-122.68 -12.68,-165.78 -31.24,-43.09 -99.84,-82.61 -205.74,-118.37l-88.88 -30 -129.02 382.19 84.4 28.53c105.22,35.48 184.76,45.51 238.71,29.8z"/>
    </g>
    <g>
     <path class="fil2" d="M15509.06 4864.41c50.33,-31.7 79.75,-82.82 88.29,-153.44 10.41,-85.37 -3.65,-148.49 -41.99,-189.38 -39.04,-41.72 -109.38,-68.8 -211.05,-81.17l-93.12 -11.3 -54.4 448.21 86.2 10.47c101.63,12.34 177.01,4.55 226.07,-23.39z"/>
    </g>
    <g>
     <path class="fil2" d="M8386.12 6874.04l-474.68 -354.95c-9.14,-5.85 -31.69,-24.29 -67.69,-55.16 -42.5,-35.76 -81.12,-68.11 -115.67,-97.01 14.6,38.65 30.73,76.76 48.33,114.13 12.88,39 26.01,74.87 39.26,107.77l194.16 559.31 376.29 -274.09z"/>
    </g>
    <g>
     <path class="fil2" d="M12680 5332.39c95.33,84.37 208.24,119.14 338.73,104.32 128.17,-14.47 229.96,-74.41 305.35,-179.8 37.35,-52.16 62.77,-108.93 76.26,-170.29 13.51,-61.25 16.07,-128.5 7.82,-201.5 -16.14,-142.15 -72,-256.56 -167.59,-343.31 -97.08,-85.78 -208.92,-121.44 -335.48,-107.11 -129.76,14.71 -231.13,74.66 -304.18,179.7 -73.06,105.08 -101.46,229.03 -85.24,371.97 16.8,148.34 71.61,263.68 164.33,346.02z"/>
    </g>
    <path class="fil3" d="M21396.21 12703.52c-119.13,0.69 -148.04,-33.66 -146.87,-150 6.03,-663.83 3.31,-1327.33 3.31,-1991.13 0,-212.9 -43.61,-255.83 -260.04,-256.11 -276.22,-0.58 -552.56,-5.85 -828.75,2.45 -110.58,3.58 -135.36,-34.66 -131.88,-136.46 6.79,-204.74 3.52,-409.69 1.45,-614.71 -1.24,-175.77 -57.53,-231.06 -231.96,-231.06 -685.92,-0.48 -1371.94,-0.48 -2058.24,0.07 -201.15,0 -235.19,36.45 -235.43,244.39 0,917.43 0.79,1835.17 -0.9,2752.56 -0.21,119.48 50.64,274.37 -19.7,348.65 -78.11,81.75 -236.16,24.25 -358.67,26.29 -303.21,4.82 -301.76,1.82 -318.88,-302.66 -4.89,-91.26 22.53,-196.88 -56.81,-265.23 -50.34,-43.52 -48.92,-87.75 -47.58,-140.18 7.24,-271.45 14.57,-542.99 21.6,-814.6 4.45,-176.01 -52.09,-233.09 -231.23,-242.84 -235.78,-12.92 -471.19,-29.53 -706.63,-40.79 -75.75,-3.93 -108.38,-18.26 -95.7,-109.9 19.43,-145.66 -43.65,-213.87 -183.38,-217.04 -418.65,-9.65 -837.26,-16.92 -1255.64,-22.26 -123.64,-1.65 -188.12,62.67 -197.67,186.31 -2.86,35.55 -4.99,71.56 -1.06,106.7 9.88,88.64 -18.92,124.05 -116.24,124.95 -253.79,1.72 -507.35,14.13 -760.99,26.01 -150.36,6.89 -206.63,56.19 -205.69,201.68 0.91,98.35 -45.32,103.42 -120.34,102.7 -285.2,-2.69 -570.19,0.13 -855.09,-2.11 -126.43,-1.2 -203.53,48.79 -220.43,179.39 -28.56,219.18 -117.01,417.44 -210.14,615.43 -80.4,171.33 -182.96,338.03 -157.38,542.33 8.39,69.87 -42.86,74.45 -97.12,73.93 -146.85,-1.82 -294.56,-9.23 -440.64,2.07 -125.66,9.58 -164.61,-24.43 -163.7,-157.13 6.12,-997.91 3.26,-1995.5 3.26,-2993.41 0,-173.15 -49.73,-224.31 -220.94,-224.69 -690.36,-0.79 -1380.83,-1.1 -2071.07,-0.55 -180.8,0 -234.47,56.88 -235.25,241.81 -0.41,209.19 -3.67,418.75 1.71,627.94 2.32,87.61 -24.15,113.99 -113.33,112.17 -284.89,-5.83 -570.11,-3.27 -855.28,-1.93 -207.1,0.86 -250.04,44.54 -250.47,251.56 -0.42,663.77 -2.81,1327.6 1.36,1991.3 0.77,109.76 -18.24,155.1 -143.49,154.27 -303.03,-2.1 -514.28,211.12 -513.15,495.82 1.19,283.12 213.48,491.89 518.28,491.24 116.07,-0.21 139.58,37.27 138.36,145 -5.19,565.74 -3.24,1131.46 -2.33,1697.18 0.3,168.36 57.71,223.69 225.43,224.17 284.91,0.62 570.1,4.76 855.04,-2.17 107.66,-2.99 145.64,22.23 142.41,137.6 -8.76,311.68 -4.04,623.49 -3.07,935.28 0.5,186.24 54.36,240.91 237.54,241.32 409.74,0.94 819.72,0.49 1229.57,0.38 280.34,-0.24 561.05,1.35 841.77,-1.34 162.73,-1.65 214.87,-56.4 216.24,-216.42 1.11,-151.21 0.27,-302.79 0.27,-454.24 0,-859.69 1.79,-1719.41 -2.41,-2579.09 -0.71,-101.15 24.62,-130.85 125.28,-125.02 151.05,8.75 303.2,7.51 454.22,-0.9 97.17,-5.72 122.71,30.7 120.1,121.58 -5.16,164.54 7.32,329.86 -0.94,493.98 -6.78,125.58 39,212.94 138.1,282.98 338.19,238.99 626.44,535.58 933.26,810.94 64.65,58.4 87.89,115.14 83.41,204.82 -34.94,702.59 -63.26,1405.63 -92.16,2108.5 -1.89,48.09 -26.23,112 64.99,115.03 73.85,2.62 99.46,-23.05 102.72,-99.01 31.66,-747.32 67.07,-1494.52 101.37,-2241.9 2.03,-49.09 1.58,-92.71 -45.53,-130.19 -362.56,-287.39 -671,-637.89 -1053.47,-901.3 -57.26,-39.73 -64.27,-88.65 -64.08,-148.97 0.72,-222.65 -5.57,-445.65 0,-668.24 2.58,-95.98 -30.75,-121.19 -122.42,-119.16 -249.29,5.48 -499.06,8.85 -748.17,-1 -128.18,-5.13 -165.97,32.07 -165.3,162.99 4.96,1024.56 1.03,2049.06 4.7,3073.49 0.74,110.21 -26.56,142.15 -139.58,141.39 -645.59,-4.96 -1291.72,-3.58 -1937.29,1.45 -101.19,0.69 -115.53,-38.28 -115.22,-125.61 1.65,-610.16 -2.61,-1220.46 -2.88,-1830.48 -0.43,-1122.58 0.77,-2245.03 0.27,-3367.4 0,-42.34 14.08,-88.82 -34.43,-140.91 -5.43,106.28 -11.75,198.34 -14.94,290.73 -41.4,1250.61 -82.85,2501.34 -120.68,3752.29 -2.56,88.26 -27.64,112.89 -113.43,111.14 -267.35,-4.44 -534.68,-5.79 -801.84,1.1 -101.15,2.62 -134.65,-20.6 -133.74,-129.57 5.87,-605.85 0.96,-1211.54 4.22,-1817.48 0.72,-91.06 -22,-131.16 -118.13,-122.55 -75.35,6.62 -151.55,4.24 -227.04,-0.38 -189.11,-11.81 -305.18,-132.7 -308.64,-316.33 -3.36,-185.86 105.78,-311.57 293.56,-331.38 70.6,-7.37 143.28,-11.85 213.42,-3.96 114.72,13.2 149.95,-22.29 148.69,-144.01 -6.77,-708.03 -1.86,-1416.34 -6.27,-2124.72 -0.72,-99.56 25.54,-127.44 125.9,-125.34 325.34,6.97 650.4,-0.1 975.62,4.52 91.78,1.1 126.21,-25.15 124.11,-120.48 -5.64,-244.84 4.42,-490.27 -4.72,-734.87 -4.22,-115.72 35.67,-137.15 143.07,-136.25 632.52,4.96 1265.21,5.71 1897.56,-0.49 120.54,-1.03 155.19,27.22 154.51,152.31 -5.6,1029.02 -1.84,2057.76 -5.6,3086.91 -0.17,108.14 24.35,147.83 139.72,143.21 235.97,-9.27 472.1,-2.96 708.31,-2.96 188.79,0 196.34,-0.1 187.67,-182 -7.8,-165.64 28.08,-314.85 100.38,-462.3 107.35,-218.94 225.98,-435.05 255.31,-683.54 9.42,-80.2 64.27,-81.21 126.2,-81.03 298.36,1.17 596.96,-0.24 895.22,-0.34 177.25,-0.14 184.3,-0.14 179.39,-179.98 -2.79,-103.9 37.32,-128.33 130.59,-129.4 213.73,-1.79 427.36,-12.19 641.21,-18.98 305.13,-9.68 309.09,-9.47 316.8,-311.78 2.31,-91.81 34.73,-109.62 118.96,-106.59 307.2,10.68 614.68,13.12 921.7,19.91 228.41,5.03 231.41,5.86 244.33,225.62 4,71.04 21.43,110.49 98.77,105.11 281.19,-20.36 559.79,34.18 839.78,34.94 94.53,0.24 119.37,29.76 113.1,124.84 -19.74,288.5 -28.66,578.02 -39.89,867.27 -1.73,38.24 -20.57,98.88 19.19,110.25 131.63,37.41 99.25,142.28 106.07,229.44 8.41,106.35 13.61,213.39 11.02,320.53 -1.86,89.95 26.25,124.3 122.41,121.51 240.12,-7.1 481,-2.62 721.33,-2.62 180.42,-0.14 178.77,0 178.35,-179.97 -1.03,-1024.64 0.42,-2048.94 -3.75,-3073.61 -0.31,-100.01 26.97,-127.02 126.61,-126.13 650.5,4.41 1300.8,3.83 1951.19,0.56 87.06,-0.56 117.07,22.87 115.42,111.65 -4.9,244.91 2.99,489.96 -4.65,734.73 -3.66,109.7 26.87,147.77 140.14,145.32 325.05,-6.86 650.16,0.07 975.48,-4.41 88.13,-1.28 110.73,25.87 110.35,114.03 -3.9,659.26 -2.28,1318.47 -2.72,1977.73 0,291.59 -0.55,291.59 295.45,300.38 17.64,0.65 35.69,0.55 53.5,2.41 194.23,20.56 308.37,147.24 303.48,336.34 -4.72,188.76 -126.37,307.2 -324.29,314.33 -53.57,2 -108.14,8.65 -159.99,0 -146.86,-24.83 -172.39,42.72 -170.74,175.32 6.51,592.34 1.65,1184.8 4.62,1777.22 0.24,79.96 -10.48,118.61 -105.7,116.61 -280.26,-6.65 -561.27,-4.51 -841.94,-0.93 -75.01,1 -97.36,-23.01 -99.5,-98.49 -22.22,-734.29 -48.47,-1468.67 -73.31,-2203.03 -25.84,-754.37 -37.55,-1509.12 -100.97,-2262.29 0,105.9 0,211.81 0,317.71 -0.42,1803.85 -2.28,3607.62 1.96,5411.75 0.2,123.09 -36.14,145.14 -149.14,144.18 -623.6,-5.51 -1247.02,-2.52 -1870.86,-2.79 -173.05,0 -172.81,-0.59 -172.81,-170.71 -0.24,-1020.02 -1.89,-2040.08 1.87,-3060.03 0.3,-109.65 -28.74,-149.13 -141.84,-145.41 -236.16,7.75 -472.32,6.06 -708.31,0.89 -94.26,-1.86 -138.12,17.64 -131.54,124.79 19.2,315.05 28.98,631.2 44.45,946.66 2.89,59.57 -3.69,105.91 -51.34,154.48 -364.14,371.97 -725.5,747.52 -1084.1,1124.65 -95.81,99.94 -179.21,212.91 -333.07,79.96 -6.62,30.01 -12.88,42.62 -11.71,54.61 52.02,578.36 105.48,1156.79 155.92,1735.6 7.06,81.41 52.3,92.13 117.51,86.03 82.96,-8 52.99,-68.35 49.24,-111.28 -41.31,-469.91 -84.58,-939.96 -125.96,-1409.87 -3.79,-44.34 -32.35,-96.77 32.9,-127.68 128.71,-60.8 211.01,-176.04 306.68,-274.09 325.98,-334.76 641.17,-680.89 977.31,-1004.93 109.93,-106.46 148.38,-203.64 136.01,-347.92 -20.39,-239.37 -20.6,-480.55 -39.13,-720.12 -9.17,-115.14 30.24,-148.83 141.14,-140.63 119.41,8.92 240.85,10.23 359.98,-0.1 112.86,-9.96 140.77,27.42 140.46,138.39 -4.35,997.41 -3,1995.42 -3,2993.26 0.27,198.47 46.23,246.98 239.88,247.12 681.82,0.79 1363.05,0.47 2044.66,-0.14 185.04,-0.31 241.09,-56.09 241.75,-237.85 0.31,-311.89 3.79,-623.84 -3.52,-935.38 -2.31,-108.14 22.02,-146.83 137.94,-143.01 276.2,8.93 552.12,3.07 828.34,3.07 208.43,0 254.94,-47.72 254.94,-260.97 0,-547.91 2.51,-1095.85 -2.34,-1643.61 -1,-113.31 14.5,-178.21 149.34,-161.43 69.25,8.74 141.25,-6.69 208.02,-37.25 220,-100.21 340.82,-327.76 293.79,-557.41 -46.09,-227 -249.59,-394.5 -504.63,-392.57z"/>
    <path class="fil3" d="M12140.07 14225.21c339.29,209.29 683.13,414.51 985.66,677.85 69.87,61.05 147.14,74.42 221.85,34.21 104.59,-56.01 208.94,-58.36 322.98,-48.85 124.47,10.51 245.94,47.79 368.66,53.54 430.11,19.64 856.71,95.67 1289.42,75.58 128.09,-5.85 231.4,-42.85 326.49,-124.53 233.95,-200.96 444.38,-425.65 646.95,-657.3 81.89,-94.05 175.01,-190.33 145.49,-340.16 -37.11,-188.92 -23.22,-381.54 -30.08,-572.67 -9.09,-253.66 -19.53,-507.05 -28.28,-760.71 -3.58,-103.32 -54.23,-154.45 -155.79,-180.32 -155.1,-39.62 -304.92,-96.26 -457.3,-144.9 -274.92,-88.09 -549.53,-176.87 -825.76,-261.86 -32.86,-10.13 -95.53,-59.36 -104.14,20.22 -21.4,194.61 -43.82,394.16 40.31,578.74 102.94,225.83 297.86,366.77 499.3,498.82 85.98,56.5 185.31,95.01 267.85,179.66 -104.18,42.44 -200.57,-1.82 -313.09,13.85 52.5,62.36 89.33,111.41 132.29,154.54 20.09,20.19 41.2,36.18 30.49,65.6 -11.02,30.49 -41.13,31.49 -67.35,27.97 -102.49,-13.33 -157.44,27.87 -175.39,132.36 -12.99,74.45 -70.11,106.6 -145.45,113.87 -379.89,36.03 -757.03,103.8 -1139.49,116.23 -128.09,3.9 -214.42,60.22 -262.4,185.59 -47.25,122.71 -109.86,239.29 -165.43,358.38 -6.56,-139.9 51.85,-267.23 23.96,-417.15 -77.88,55.43 -87.01,148.64 -158.8,190.12 2.58,-74.61 34.05,-138.69 57.7,-205.73 23.22,-65.25 19.73,-114.03 -67.09,-137.63 -213.63,-58.6 -421.2,-141.32 -637.01,-188.14 -198.41,-43.27 -386.92,-134.39 -595.59,-129.64 -291.34,6.89 -245.35,-36.44 -270.98,264.62 -18.2,213.22 69.23,322.74 240.02,427.84z"/>
    <path class="fil3" d="M13083.72 17824.02c66.37,-0.51 133.06,-11.4 199.13,-10.5 95.92,1.65 126.41,-36.73 125.26,-135.43 -3.81,-302.52 3.31,-605.17 10.54,-907.71 0.93,-41.17 -31.18,-115.24 40.08,-119.58 80.74,-4.96 41.35,73.31 43.22,110.24 17.11,323.25 44.76,644.82 114.9,961.77 10.73,47.88 6.84,101.38 77.8,101.59 271.43,0.28 542.99,1.55 814.5,1.17 63.88,-0.31 86.61,-33.62 71.08,-96.29 -98.92,-395.91 -180.77,-794.51 -201.96,-1203.54 -1.06,-25.81 -1.58,-60.02 -17.29,-75.96 -76.24,-77.69 -68.97,-178.01 -80.62,-272.72 -6.61,-51.47 4.89,-108.49 -70.24,-159.13 -32.8,291.52 6.61,576.12 -69.87,854.18 -31.58,-171.88 -98.69,-339.38 -115.54,-511.32 -15.53,-155.38 -92.7,-214.46 -221.21,-233.1 -215.99,-31.66 -425.16,-92.36 -637.65,-137.63 -187.4,-40.03 -201.54,-26.42 -215.32,168.74 -34.45,496.96 -1.65,996.01 -42.67,1493.31 -14.26,171.91 -3.53,174.12 175.86,171.91z"/>
    <path class="fil3" d="M14087.97 11373.81c-195.17,13.44 -390.49,21.47 -585.81,26.67 -83.03,2.21 -120.51,32.97 -121.04,118.93 -0.64,141.97 -11.23,283.87 -13.11,425.88 -3.97,337.58 -5.67,675.2 -6.76,1013.06 0,56.36 -8.47,124.48 86.3,110.07 194.36,-29.24 390.23,-14.05 584.81,-10.33 130.46,2.79 176.45,-52.16 173.83,-173.56 -2.14,-120.17 -0.28,-239.89 2.62,-359.84 1.82,-92.09 -35.07,-136.19 -132.32,-142.84 -89.57,-6.13 -185.96,14.37 -276.5,-44.44 91.5,-51.26 182,-64.63 275.61,-67.8 89.04,-3.14 138.31,-37.97 136.96,-138.32 -3.34,-212.98 -1.44,-426.4 3.76,-639.82 2.27,-95.02 -36.83,-123.82 -128.35,-117.66z"/>
    <path class="fil3" d="M12979.14 11732.07c-141.61,12.13 -284.01,17.85 -426.1,21.02 -339.14,7.51 -342.19,5.23 -455.22,317.98 -75.76,210.11 -187.17,411.59 -181.94,644.02 0.88,52.89 -37.79,136.98 66.56,141.98 103.22,5.2 232.89,34.27 271.36,-93.54 27.44,-91.08 68.93,-179.52 78.73,-313.22 20.64,116.44 43.67,194.92 46.23,274.12 3.28,102.91 53.2,160.54 146.82,175.05 150.27,22.94 290.82,78.99 437.18,115.23 92.09,22.95 125.42,-16.46 127.8,-98.84 2.77,-111.27 3.56,-222.44 3.56,-333.72 -0.2,-251.56 -5.94,-201.89 -196.3,-212.25 -38.05,-2.14 -79.8,8.92 -119.89,-25.46 8.25,-32.8 29.29,-50.09 49.04,-49.58 287.74,9.68 294.54,-179.56 277.21,-387.09 -1.48,-17.74 0.23,-35.9 3.48,-53.26 19.24,-106.73 -32.09,-130.74 -128.52,-122.44z"/>
    <path class="fil3" d="M14441.59 12899.06c-0.62,55.5 17.4,116.83 80.96,119.69 76.73,3.37 165.09,32.86 229.62,-29.56 54.36,-52.71 8.85,-115.04 -20.84,-157.51 -205.23,-295.52 -177.36,-626.29 -132.54,-951.23 37.73,-273.82 54.37,-270.99 312.37,-185.07 32.83,10.89 70.14,9.27 102.94,20.64 124.78,43.92 155.2,26.35 172.18,-108.45 15.2,-123.37 19.23,-248.47 43.83,-369.42 50.05,-247.22 36.58,-267.41 -216.67,-258.31 -21.91,0.72 -43.61,6.09 -65.66,9.37 -8.02,3.82 -15.78,3.03 -23.01,-2.21 -18.33,-0.21 -37,-0.72 -55.16,-1.17 -52.5,-0.07 -105.01,-0.21 -157.27,-0.31 -45.06,0.24 -90.12,0.31 -134.39,0.41 -18.6,0.62 -36.62,1.07 -54.74,1.76 -92.36,-1.14 -66.53,69.45 -62.84,114.96 35.49,439.11 7.27,878.02 -6.07,1316.96 -4.92,159.89 -10.81,319.67 -12.71,479.45z"/>
    <path class="fil3" d="M14661.49 16731.83c0.83,0.79 1.59,2.44 2.24,4.51 0.24,-5.38 0.38,-10.61 0.52,-15.99 -1.27,3.96 -4.48,9.99 -2.76,11.48z"/>
    <path class="fil3" d="M14757.75 17828.05c111.24,-4.47 222.52,-7.57 333.52,-0.48 102.7,6.65 142.04,-21.74 135.57,-133.74 -18.54,-302.17 -103.02,-595.93 -105.05,-899.1 -0.79,-95.46 -45.58,-159.82 -116.99,-211.29 -57.74,-41.27 -117.03,-80.44 -176.91,-118.13 -104.8,-65.39 -129.64,-53.15 -136.32,67.7 -3.69,71.35 8.54,145.83 -10.06,212.28 -11.4,41 -13.06,5.21 -17.78,-8.95 -0.17,5.09 -0.48,10.23 -0.48,15.26 -0.27,164.71 -0.27,329.14 -0.27,493.65 -5.79,0 -11.65,0 -17.78,0 0,155.65 5.44,311.88 -2.07,467.02 -4.06,90.67 30.18,118.64 114.62,115.78z"/>
    <path class="fil3" d="M16159.73 11332.48c-195.34,-9.62 -390.5,-21.09 -585.36,-34.49 -66.42,-4.58 -100.52,18.98 -105,86.99 -7.99,124.02 -17.47,248.01 -27.98,371.86 -6.26,74.14 24.46,112.97 96.67,134.26 210.81,62.56 420.24,129.43 629.01,197.71 80.17,26.15 97.5,-25.08 100.97,-80.31 5.45,-92.91 1.25,-186.38 1.25,-279.53 0.51,0 0.96,0 1.37,0 0,-93.4 -1.37,-186.89 0.55,-280.08 1.38,-77.42 -34.52,-112.56 -111.48,-116.41z"/>
    <path class="fil3" d="M10552.59 13049.41c-2.91,67.38 58.32,51.74 99.37,51.81 212.72,1.38 425.7,0.76 638.6,0.52 208.5,-0.21 417.29,0.93 625.53,-0.86 40.81,-0.31 106.44,14.09 104.33,-48.27 -2.08,-61.7 -68,-42.1 -107.88,-42.51 -421.4,-1.24 -842.67,-1 -1264.06,-0.21 -36.58,0 -93.31,-18.16 -95.89,39.52z"/>
    <path class="fil3" d="M16745.88 13100.29c279.5,0.86 559.24,0.59 838.84,0.34 35.59,0 82.55,0.9 82.55,-44.75 0,-58.6 -54.67,-45.61 -91.88,-45.99 -137.5,-1.38 -274.95,-0.55 -412.58,-0.41 -137.67,0 -275.34,-1.55 -412.76,1.1 -35.18,0.72 -93.09,-18.33 -95.6,39.03 -2.21,53.3 52.46,50.68 91.43,50.68z"/>
    <path class="fil3" d="M21417.57 13100.98c35.21,-0.1 80.65,0 84.16,-44.27 3.96,-50.92 -45.51,-44.72 -78.1,-46.92 -44.03,-3.31 -88.37,-0.93 -132.5,-0.93 -40.1,0 -79.79,-1.45 -119.82,0.48 -32.73,1.65 -78.51,-10.2 -81.58,41.55 -3.13,52.29 41.28,48.92 75.24,49.57 84.17,1.28 168.36,1.28 252.6,0.52z"/>
    <path class="fil3" d="M6951.11 13013.17c-62.12,1.54 -174.91,-45.69 -176.03,46.6 -1,74.04 112.31,25.67 177.01,45 53.43,-30.08 167.26,48.27 167.72,-55.36 0,-73.93 -110.21,-37.49 -168.7,-36.24z"/>
    <polygon class="fil3" points="8647.9,16609.21 10287.28,16609.21 10287.28,9731.5 8647.9,9731.5 "/>
    <polygon class="fil3" points="19552.63,9731.5 17913.56,9731.5 17913.56,16609.21 19552.63,16609.21 "/>
    <polygon class="fil3" points="7293.77,15313.1 8007.96,15316.17 8253.47,10744.5 7293.77,10744.5 "/>
    <polygon class="fil3" points="20935.43,15383.79 20935.43,10815.09 19975.9,10815.09 20221.53,15386.72 "/>
    <path class="fil3" d="M3653.36 11355.04l756.81 524.55c66.44,43.31 104.73,68.21 114.83,74.83 42.17,24.56 73,40.93 92.53,48.99 -60.32,-11.65 -128.94,-18.16 -205.84,-19.61 -4.96,0 -15.93,-0.3 -33,-1.03l-921.96 -30.76 -144.89 439.94 1547.68 788.68 136.04 -413.27 -673.44 -327.91c-20.07,-9.02 -49.42,-22.46 -88.02,-40.13 -38.62,-17.64 -68.01,-30.98 -88.03,-40.07 -38.38,-18.36 -97.44,-43.99 -177.2,-76.9 75.21,14.09 168.09,22.05 278.59,23.92 21.52,-0.35 38.95,0.44 52.3,2.41l837.04 29.94 97.58 -296.32 -691.07 -473.18c-12.44,-7.34 -26.87,-17.12 -43.46,-29.18 -85.78,-59.5 -165.07,-108.69 -237.9,-147.49 87.83,23.23 156.03,39.9 204.53,50.06 48.72,11.96 105.98,24.25 171.79,36.83l736.6 136.46 136.77 -415.48 -1713.09 -286.35 -145.19 441.07z"/>
    <polygon class="fil3" points="6059.14,9544.05 5748.51,10052.34 5502.37,9901.93 5795.26,9422.62 5480.12,9230.07 5187.22,9709.21 4934.04,9554.56 5244.73,9046.27 4922.51,8849.35 4374,9746.87 5838.82,10642.11 6387.3,9744.63 "/>
    <polygon class="fil3" points="6014.36,8112.38 6987.07,8991.26 7300.73,8644.13 6328.04,7765.22 6585.87,7479.83 6284.91,7207.87 5455.45,8125.71 5756.47,8397.7 "/>
    <path class="fil3" d="M8233.89 7778.41l-108.82 -300.79 537.4 -391.43 251.08 197.23 376.27 -274.06 -1490.31 -1038.35 -473.94 345.2 532.04 1736.29 376.28 -274.09zm-457.48 -1297.36l0 0c-17.6,-37.37 -33.73,-75.48 -48.33,-114.13 34.55,28.9 73.17,61.25 115.67,97.01 36,30.87 58.55,49.31 67.69,55.16l474.68 354.95 -376.29 274.09 -194.16 -559.31c-13.25,-32.9 -26.38,-68.77 -39.26,-107.77z"/>
    <path class="fil3" d="M10067.3 6630.68l-191.64 -724.13c-6.2,-21.08 -15.21,-52.09 -27.09,-92.84 -11.9,-40.79 -20.9,-71.76 -27.17,-92.92 -11.14,-41.03 -30.3,-102.45 -57.5,-184.28 38.49,66.12 93.09,141.63 163.89,226.49 14.31,16.08 25.11,29.8 32.33,41.16l524.12 653.4 288.01 -119.65 -93.07 -832.44c-2.5,-14.15 -4.62,-31.48 -6.32,-51.95 -10.96,-103.8 -25.53,-195.95 -43.72,-276.43 39.82,81.68 71.73,144.21 95.69,187.51 22.77,44.72 50.9,96.16 84.35,154.21l377.88 646.78 403.9 -167.78 -902.2 -1484.21 -428.81 178.14 97.2 915.78c10.59,78.55 16.73,123.82 18.33,135.84 8.95,47.95 16.7,81.96 23.35,102.04 -30.59,-53.26 -70.48,-109.52 -119.61,-168.7 -3.25,-3.69 -10.16,-12.27 -20.81,-25.64l-578.91 -718.23 -427.76 177.7 413.81 1687.06 401.75 -166.91z"/>
    <path class="fil3" d="M12159.66 5374.91c60.87,107.21 137.75,195.99 230.66,266.47 92.52,73.73 198.41,126.95 317.76,159.89 120.82,32.7 239.49,42.41 355.9,29.25 114.89,-13.02 228.36,-49.13 340.39,-108.24 106.68,-57.75 198.71,-133.54 276.13,-227.28 77.94,-96.15 133.1,-199.13 165.45,-309.09 32.04,-112.21 41.13,-230.03 27.14,-353.54 -13.88,-121.92 -49.02,-233.99 -105.38,-336.21 -57.98,-101.94 -135.07,-190.75 -231.36,-266.4 -96.24,-75.59 -202.02,-129.51 -317.31,-161.65 -115.31,-32.21 -234.66,-41.27 -358.05,-27.25 -123.47,13.95 -236.99,49.27 -340.65,105.87 -106.64,57.74 -197.85,134.22 -273.49,229.3 -74.81,89.54 -129.86,193.34 -165.22,311.41 -34.04,115.65 -44.34,232.82 -30.85,351.71 13.47,118.78 49.74,230.75 108.88,335.76zm441.25 -760.51l0 0c73.05,-105.04 174.42,-164.99 304.18,-179.7 126.56,-14.33 238.4,21.33 335.48,107.11 95.59,86.75 151.45,201.16 167.59,343.31 8.25,73 5.69,140.25 -7.82,201.5 -13.49,61.36 -38.91,118.13 -76.26,170.29 -75.39,105.39 -177.18,165.33 -305.35,179.8 -130.49,14.82 -243.4,-19.95 -338.73,-104.32 -92.72,-82.34 -147.53,-197.68 -164.33,-346.02 -16.22,-142.94 12.18,-266.89 85.24,-371.97z"/>
    <path class="fil3" d="M15168.75 5108.98l310.16 714.48 525 63.7 -381.13 -743.18c128.05,-10.4 228.92,-53.74 302.75,-129.81 75.38,-75.9 121,-179.45 136.95,-310.61 10.74,-88.4 3.61,-169.6 -21.23,-243.5 -23.01,-76.79 -62.66,-142.25 -119.09,-196.37 -51.65,-48.82 -112.45,-86.09 -182.52,-111.9 -40.86,-14.43 -93.47,-27.45 -157.86,-39.24 -64.46,-11.74 -143.66,-23.35 -237.67,-34.76l-486.11 -59.01 -206.77 1704.22 436.53 53.02 80.99 -667.04zm82.44 -679.86l0 0 93.12 11.3c101.67,12.37 172.01,39.45 211.05,81.17 38.34,40.89 52.4,104.01 41.99,189.38 -8.54,70.62 -37.96,121.74 -88.29,153.44 -49.06,27.94 -124.44,35.73 -226.07,23.39l-86.2 -10.47 54.4 -448.21z"/>
    <path class="fil3" d="M17161.05 5638.94l79.92 27.01 75.59 25.49c141.45,47.75 243.33,73.45 305.62,77.17 68.93,5.96 131.98,-1.17 189.2,-21.53 79.23,-26.84 145.24,-72.21 198.13,-136.05 56.39,-61.8 101.08,-141.63 134.05,-239.43 31,-91.81 43.23,-180.53 36.65,-266.07 -7.09,-84.09 -31.93,-160.92 -74.38,-230.61 -35.62,-58.19 -87.23,-109.42 -154.79,-153.76 -69.66,-43.23 -194.61,-95.36 -374.75,-156.13l-463.99 -156.68 -549.04 1626.53 416.61 140.67 181.18 -536.61zm249.77 -739.97l0 0 88.88 30c105.9,35.76 174.5,75.28 205.74,118.37 31.22,43.1 35.42,98.43 12.68,165.78 -23.74,70.42 -61.53,112.52 -113.21,126.37 -53.95,15.71 -133.49,5.68 -238.71,-29.8l-84.4 -28.53 129.02 -382.19z"/>
    <polygon class="fil3" points="19120.48,6354.14 19653.58,6680.39 19288.78,7276.49 19687.89,7520.75 20583.99,6056.45 20184.95,5812.26 19836.65,6381.32 19303.55,6055.07 19651.82,5485.97 19252.74,5241.79 18356.6,6706.06 18755.68,6950.28 "/>
    <path class="fil3" d="M20639.8 8322.46c47.86,115.72 112.55,215.7 194,299.83 80.44,83.13 178.25,150.96 293.41,203.67 110.87,49.3 227.07,76.03 348.51,80.14 123.78,3.13 239.05,-16.06 345.85,-57.44 108.49,-43.06 207.4,-107.86 296.73,-194.23 88.19,-85.4 155.55,-181.63 202.05,-288.6 45.48,-108.17 68.77,-223.48 69.97,-345.88 1.21,-122.44 -20.67,-239.06 -65.49,-349.99 -44.89,-111.07 -110.48,-211.12 -196.89,-300.41 -86.43,-89.23 -183.69,-157.62 -291.76,-205.23 -110.79,-49.3 -226.96,-74.89 -348.54,-76.86 -116.58,-4.62 -232.37,15.13 -347.47,59.12 -112.38,43.55 -211.53,106.93 -297.49,190.13 -85.99,83.17 -152.51,180.22 -199.64,291.08 -47.75,113.66 -71.24,228.76 -70.35,345.44 -1.96,118.2 20.47,234.65 67.11,349.23zm354.4 -308.3l0 0c8.64,-123.72 66.63,-237.4 173.94,-341.34 103.28,-99.98 218.9,-153.13 346.72,-159.41 127.81,-6.2 237.09,37.62 327.9,131.4 88.64,91.57 128.6,201.92 119.89,331.21 -10.44,128.61 -67.04,242.71 -169.84,342.17 -52.78,51.16 -107.56,90.09 -164.37,116.75 -56.84,26.74 -117.34,41.24 -181.55,43.48 -129.4,4.58 -238.99,-39.52 -328.7,-132.19 -91.33,-94.36 -132.74,-205.05 -123.99,-332.07z"/>
    <path class="fil3" d="M23102.43 10372.15c40.51,-50.88 67.52,-103.69 81.09,-158.43 22.74,-84.89 6.52,-222.18 -48.5,-411.73 -1.07,-4.82 -2.07,-8.34 -2.97,-10.54 -0.86,-2.24 -1.75,-4.89 -2.69,-7.99 -25.56,-87.72 -35.55,-151.97 -30.03,-192.72 7.64,-40.28 29.24,-71.08 64.76,-92.43 36.73,-22.26 75.31,-24.98 115.59,-8.24 42.37,17.3 77.65,49.37 105.93,96.19 27.8,46.1 46.51,99.04 56.19,158.92 9.03,61.94 7.85,126.57 -3.68,193.72l364.11 -47.99c4.16,-91.37 -4.48,-179.9 -26.15,-265.79 -19.47,-82.13 -54.81,-165.78 -106.04,-250.7 -90.81,-150.48 -208.74,-245.29 -353.85,-284.5 -145.21,-40.96 -288.04,-19.05 -428.63,65.7 -108.46,65.46 -176.05,147.21 -202.61,245.33 -25.7,96.63 -14.92,228.13 32.62,394.63 35.14,121.85 48.99,206.05 41.41,252.56 -10.05,45.31 -39.24,82.44 -87.43,111.55 -44.2,26.64 -91.13,31.25 -140.87,13.85 -49.75,-17.39 -90.57,-52.5 -122.41,-105.28 -33.93,-56.19 -51.88,-123.71 -53.88,-202.71 -1.07,-75.96 13.99,-165.26 45.17,-267.92l-407.07 -0.59c-27.6,125.3 -33.73,239.23 -18.44,341.86 15.37,102.53 54.57,206.05 117.55,310.47 102.56,169.98 232.16,278.12 388.67,324.25 157.55,44.65 313.96,20.12 469.26,-73.52 62.91,-37.99 113.83,-80.64 152.9,-127.95z"/>
    <polygon class="fil3" points="24330.05,10759.49 22744.72,11418.02 22926,11854.51 24511.36,11195.84 "/>
    <path class="fil3" d="M24155.35 13524.69c54.68,-35.34 97.18,-76.72 127.54,-124.16 48.71,-73.21 77.41,-208.39 85.99,-405.59 0.51,-4.93 0.72,-8.61 0.62,-10.96 -0.14,-2.34 -0.14,-5.2 -0.11,-8.33 3.96,-91.37 15.06,-155.45 33.39,-192.31 20.15,-35.69 50.4,-57.91 90.95,-66.83 41.92,-9.3 79.3,0.45 112.03,29.28 34.66,29.94 57.85,71.59 69.63,125.02 11.57,52.64 12.3,108.76 2.27,168.57 -11.26,61.6 -33.11,122.4 -65.49,182.38l360.25 71.08c33.25,-85.17 53.4,-171.84 60.4,-260.07 7.85,-84.1 1.2,-174.6 -20.16,-271.48 -37.79,-171.6 -119.13,-299.2 -243.91,-382.85 -124.58,-85.37 -266.93,-110.41 -427.23,-75.1 -123.71,27.25 -213.9,83.09 -270.57,167.43 -55.23,83.34 -87.1,211.46 -95.43,384.3 -5.76,126.81 -19.61,210.91 -41.69,252.56 -24.01,39.65 -63.66,65.49 -118.58,77.62 -50.4,11.09 -96.39,0.45 -137.91,-31.97 -41.51,-32.39 -68.97,-78.76 -82.23,-138.98 -14.13,-64.01 -9.48,-133.77 14.02,-209.26 23.25,-72.27 66.15,-152.1 128.5,-239.39l-385.44 -130.88c-66.25,109.83 -108.51,215.76 -126.91,317.88 -18.3,102.04 -14.37,212.66 11.82,331.79 42.71,193.93 130.84,337.8 264.41,431.64 134.87,92.81 290.83,119.72 468.01,80.72 71.73,-15.81 133.67,-39.86 185.83,-72.11z"/>
    <path class="fil0" d="M10805.62 21234.15l-1612.69 0 0 685.75 456.5 0c-11.96,75.75 -49.51,134.91 -112.64,177.42 -63.14,42.58 -145.21,63.8 -246.17,63.8 -170.12,0 -301.73,-56.84 -394.72,-170.5 -93.06,-113.58 -139.55,-273.33 -139.55,-479.34 0,-199.37 46.18,-358.19 138.55,-476.46 92.36,-118.27 216.3,-177.46 371.79,-177.46 89.02,0 168.09,19.95 237.23,59.84 69.08,39.83 128.21,100.36 177.41,181.42l934.91 -346.88c-147.48,-252.5 -337.57,-444.22 -570.11,-575.16 -232.6,-130.85 -498.37,-196.34 -797.37,-196.34 -220.64,0 -425.95,37.24 -616,111.66 -190.07,74.44 -357.53,182.72 -502.33,324.94 -143.54,140.87 -252.89,303.99 -327.94,489.41 -75.09,185.38 -112.64,387.02 -112.64,605.03 0,216.55 37.21,417.3 111.66,601.96 74.4,184.76 184,348.92 328.92,492.37 146.16,143.56 313.95,252.18 503.33,326.01 189.37,73.72 394.36,110.55 615,110.55 299,0 566.11,-66.08 801.36,-198.33 235.22,-132.19 427.25,-323.22 576.11,-573.06 61.11,-106.31 107.66,-228.58 139.54,-366.83 31.9,-138.19 47.84,-291.01 47.84,-458.54 0,-22.5 -0.67,-48.44 -1.97,-77.69 -1.36,-29.22 -3.35,-73.73 -6.02,-133.57z"/>
    <path class="fil0" d="M13871.99 20614.17c-2.69,6.65 -7.3,17.95 -13.95,33.87 -35.9,90.4 -61.15,158.85 -75.76,205.36 -1.34,-5.31 -3.34,-12.57 -5.99,-21.95 -30.6,-96.98 -57.17,-170.11 -79.72,-219.28l-245.22 -566.13 -1196.09 0 976.8 1628.67 0 1289.77 1056.54 0 0 -1289.77 1012.68 -1628.67 -1188.11 0 -241.18 568.13z"/>
    <path class="fil0" d="M19145.11 20046.04l-217.35 709.69c-53.16,174.12 -95.63,330.94 -127.54,470.39 -31.93,139.6 -55.84,271.13 -71.76,394.78l-17.98 0c-19.95,-196.72 -73.76,-447.21 -161.47,-751.52 -13.26,-45.19 -23.26,-79.13 -29.87,-101.7l-207.33 -721.64 -1082.41 0 -498.44 2918.44 1028.68 0 127.57 -1156.2c7.92,-89.02 15.57,-177.43 22.97,-265.14 7.24,-87.71 14.23,-176.73 20.88,-267.13 11.96,83.72 28.6,172.43 49.85,266.17 21.22,93.67 48.51,193.65 81.72,299.96l334.93 1122.34 623.91 0 334.93 -1122.34c31.9,-106.31 58.78,-206.29 80.75,-299.96 21.88,-93.74 38.83,-182.45 50.82,-266.17 5.27,89.09 11.95,177.8 19.88,266.17 8.03,88.4 15.98,177.08 23.97,266.1l127.58 1156.2 1028.67 0 -462.54 -2918.44 -1080.42 0z"/>
    <path class="fil1" d="M25123.53 15228.46c-353.99,69.93 -529.31,-124.51 -667.22,-404.94 -69.9,347.5 -281.22,478 -611.91,482.93 289.83,168.29 390.08,395.81 304.4,728.57 234.07,-276.67 487.9,-193.06 803.09,-46.06 -202.37,-357.12 -98.8,-574.64 171.64,-760.5z"/>
    <path class="fil1" d="M3746.86 14849.36c-69.96,347.33 -281.4,477.93 -611.85,482.96 289.88,168.16 389.72,395.67 304.42,728.54 234.04,-276.78 487.57,-193.03 802.97,-46.13 -202.33,-357.05 -98.95,-574.68 171.43,-760.54 -353.7,70.07 -529.36,-124.44 -666.97,-404.83z"/>
   </g>
  </g>
 </g>
</svg>
